<svg width="32" height="32" viewBox="0 0 32 32" fill="none" xmlns="http://www.w3.org/2000/svg">
<rect width="32" height="32" rx="8" fill="#0018F1"/>
<path d="M6.25 10.7207L15.75 12.9663V26.8525L6.25 24.6073V10.7207Z" fill="white"/>
<path d="M25.75 10.7207L16.25 12.9663V26.8525L25.75 24.6073V10.7207Z" fill="white"/>
<path d="M4.83203 16.792L5.82368 17.0288V24.9673L16 27.3691V28.3623L4.83203 25.7525V16.792Z" fill="white"/>
<path d="M27.168 16.792L26.1763 17.0288V24.9673L16 27.3691V28.3623L27.168 25.7525V16.792Z" fill="white"/>
<path d="M9.497 9H8.39V6.192H6.5L6.833 5.553C6.875 5.475 6.911 5.427 6.941 5.409C6.977 5.391 7.037 5.382 7.121 5.382H11.396L11.063 6.021C11.015 6.099 10.976 6.147 10.946 6.165C10.916 6.183 10.856 6.192 10.766 6.192H9.731C9.665 6.192 9.608 6.216 9.56 6.264C9.518 6.306 9.497 6.36 9.497 6.426V9ZM12.2055 9V5.382H15.5535C15.7335 5.382 15.9015 5.418 16.0575 5.49C16.2195 5.556 16.3575 5.649 16.4715 5.769C16.5915 5.883 16.6845 6.018 16.7505 6.174C16.8225 6.33 16.8585 6.498 16.8585 6.678C16.8585 6.954 16.7805 7.2 16.6245 7.416C16.4745 7.632 16.2825 7.788 16.0485 7.884L17.3625 9H15.9765L14.8065 7.983H13.6455L13.9785 7.335C14.0265 7.257 14.0655 7.209 14.0955 7.191C14.1255 7.167 14.1855 7.155 14.2755 7.155H15.2835C15.4215 7.155 15.5355 7.11 15.6255 7.02C15.7155 6.924 15.7605 6.81 15.7605 6.678C15.7605 6.546 15.7155 6.435 15.6255 6.345C15.5355 6.249 15.4215 6.201 15.2835 6.201H13.5465C13.4805 6.201 13.4235 6.225 13.3755 6.273C13.3335 6.315 13.3125 6.369 13.3125 6.435V9H12.2055ZM19.3789 5.382V9H18.2629V5.382H19.3789ZM20.5498 9V5.382H23.9878C24.1678 5.382 24.3358 5.418 24.4918 5.49C24.6478 5.556 24.7828 5.649 24.8968 5.769C25.0168 5.883 25.1098 6.018 25.1758 6.174C25.2478 6.33 25.2838 6.498 25.2838 6.678C25.2838 6.858 25.2478 7.029 25.1758 7.191C25.1098 7.347 25.0168 7.485 24.8968 7.605C24.7828 7.719 24.6478 7.812 24.4918 7.884C24.3358 7.95 24.1678 7.983 23.9878 7.983H21.9808L22.3138 7.335C22.3618 7.257 22.4008 7.209 22.4308 7.191C22.4668 7.167 22.5268 7.155 22.6108 7.155H23.7178C23.8498 7.155 23.9608 7.11 24.0508 7.02C24.1468 6.924 24.1948 6.81 24.1948 6.678C24.1948 6.546 24.1468 6.435 24.0508 6.345C23.9608 6.249 23.8498 6.201 23.7178 6.201H21.8818C21.8158 6.201 21.7618 6.225 21.7198 6.273C21.6778 6.315 21.6568 6.369 21.6568 6.435V9H20.5498Z" fill="white"/>
</svg>
