<svg xmlns="http://www.w3.org/2000/svg" version="1.1" xmlns:xlink="http://www.w3.org/1999/xlink" xmlns:svgjs="http://svgjs.dev/svgjs" viewBox="0 0 800 800" opacity="0.21"><g stroke-width="1" stroke="hsl(265, 55%, 20%)" fill="none"><path d="M344.9593205656804 -393.83477102897064C379.01847411536005 -413.4952908220307 420.9814648494837 -413.4952908220307 455.04061839916335 -393.82926696407895L1059.9593662537188 -44.57983739267934C1094.0185198033987 -24.919317599619262 1115.0000151704605 11.424022880105213 1115.0000151704605 50.7505665311171V749.2494256739164C1115.0000151704605 788.5759693249286 1094.0185198033987 824.919309804653 1059.9593662537188 844.5853336626044L455.04061839916335 1193.8347632340042C420.9814648494837 1213.4952830270643 379.01847411536005 1213.4952830270643 344.9593205656804 1193.8292591691127L-259.95942728887525 844.5798295977129C-294.01858083855484 824.919309804653 -315.0000762056168 788.5759693249286 -315.0000762056168 749.2494256739164V50.7505665311171C-315.0000762056168 11.424022880105213 -294.01858083855484 -24.919317599619262 -259.95942728887525 -44.58534145757085L344.9593205656804 -393.83477102897064Z " transform="rotate(110, 400, 400)" opacity="0.89"></path><path d="M345.9600596368939 -379.40142459504546C379.3999558493066 -398.70448039186806 420.59998311553716 -398.70448039186806 454.03987932794985 -379.3960206040609L1047.960104494241 -36.4965806612322C1081.4000007066536 -17.193524864409596 1102.000014339769 18.489027606592572 1102.000014339769 57.10054319122253V742.8994230768799C1102.000014339769 781.5109386615097 1081.4000007066536 817.193491132512 1047.960104494241 836.5019509203191L454.03987932794985 1179.4013908631478C420.59998311553716 1198.7044466599705 379.3999558493066 1198.7044466599705 345.9600596368939 1179.3959868721633L-247.96016552939716 836.4965469293347C-281.4000617418098 817.193491132512 -302.00007537492513 781.5109386615097 -302.00007537492513 742.8994230768799V57.10054319122253C-302.00007537492513 18.489027606592572 -281.4000617418098 -17.193524864409596 -247.96016552939716 -36.501984652216606L345.9600596368939 -379.40142459504546Z " transform="rotate(108, 400, 400)" opacity="0.43"></path><path d="M346.9607987081074 -364.96804764354215C379.78143758325314 -383.91363944412734 420.2185013815906 -383.91363944412734 453.03914025673635 -364.96274372646474L1035.9608427347628 -28.41329341220694C1068.7814816099085 -9.467701611621806 1089.0000135090772 25.554062850658283 1089.0000135090772 63.45055036890608V736.5494509974219C1089.0000135090772 774.4459385156697 1068.7814816099085 809.4677029779496 1035.9608427347628 828.418598695612L453.03914025673635 1164.96804900987C420.2185013815906 1183.913640810455 379.78143758325314 1183.913640810455 346.9607987081074 1164.9627450927926L-235.960903769919 828.4132947785347C-268.78154264506475 809.4677029779496 -289.00007454423354 774.4459385156697 -289.00007454423354 736.5494509974219V63.45055036890608C-289.00007454423354 25.554062850658283 -268.78154264506475 -9.467701611621806 -235.960903769919 -28.41859732928424L346.9607987081074 -364.96804764354215Z " transform="rotate(106, 400, 400)" opacity="0.87"></path><path d="M347.9615377793208 -350.5346401744607C380.1629193171997 -369.12276797880844 419.83701964764407 -369.12276797880844 452.03840118552296 -350.5294363312904L1023.9615809752845 -20.32997564560344C1056.1629625131634 -1.741847841255776 1076.0000126783857 32.61912861230189 1076.0000126783857 69.80058806416787V730.1995094355416C1076.0000126783857 767.3809688874073 1056.1629625131634 801.7419453409652 1023.9615809752845 820.3352769884832L452.03840118552296 1150.53473767417C419.83701964764407 1169.1228654785177 380.1629193171997 1169.1228654785177 347.9615377793208 1150.5295338309998L-223.96164201044087 820.330073145313C-256.16302354831976 801.7419453409652 -276.0000737135419 767.3809688874073 -276.0000737135419 730.1995094355416V69.80058806416787C-276.0000737135419 32.61912861230189 -256.16302354831976 -1.741847841255776 -223.96164201044087 -20.335179488773633L347.9615377793208 -350.5346401744607Z " transform="rotate(104, 400, 400)" opacity="0.19"></path><path d="M348.9622768505343 -336.10132425811366C380.5444010511462 -354.33198806622397 419.4555379136975 -354.33198806622397 451.03766211430946 -336.09622048885046L1011.9623192158065 -12.246749431734543C1043.5444434164185 5.983914376375765 1063.000011847694 39.68410282121113 1063.000011847694 76.15053420669506V723.8494763209269C1063.000011847694 760.3159077064108 1043.5444434164185 794.0160961512461 1011.9623192158065 812.2518637286196L451.03766211430946 1136.1013347857356C419.4555379136975 1154.3319985938458 380.5444010511462 1154.3319985938458 348.9622768505343 1136.0962310164725L-211.96238025096272 812.2467599593565C-243.5445044515747 794.0160961512461 -263.0000728828503 760.3159077064108 -263.0000728828503 723.8494763209269V76.15053420669506C-263.0000728828503 39.68410282121113 -243.5445044515747 5.983914376375765 -211.96238025096272 -12.25185320099763L348.9622768505343 -336.10132425811366Z " transform="rotate(102, 400, 400)" opacity="0.67"></path><path d="M349.9630159217478 -321.66799308297755C380.9258827850929 -339.5411928948504 419.07405617975087 -339.5411928948504 450.03692304309595 -321.6629893876215L999.9630574563284 -4.163507959076355C1030.9259243196734 13.709691852796368 1050.0000110170024 46.74909228890954 1050.0000110170024 82.5004956080113V717.4994584651015C1050.0000110170024 753.2508617842036 1030.9259243196734 786.2902622203167 999.9630574563284 804.1684657275453L450.03692304309595 1121.6679471560903C419.07405617975087 1139.5411469679632 380.9258827850929 1139.5411469679632 349.9630159217478 1121.6629434607346L-199.96311849148464 804.1634620321895C-230.92598535482966 786.2902622203167 -250.0000720521587 753.2508617842036 -250.0000720521587 717.4994584651015V82.5004956080113C-250.0000720521587 46.74909228890954 -230.92598535482966 13.709691852796368 -199.96311849148464 -4.168511654432223L349.9630159217478 -321.66799308297755Z " transform="rotate(100, 400, 400)" opacity="0.10"></path><path d="M350.9637549929613 -307.23460087268523C381.3073645190394 -324.75033668832054 418.6925744458043 -324.75033668832054 449.03618397188245 -307.22969725123625L987.9637956968502 3.9197945487379684C1018.3074052229283 21.435530364373335 1037.0000101863109 53.8141427917642 1037.0000101863109 88.85051804448403V711.1495016444326C1037.0000101863109 746.1858768971522 1018.3074052229283 778.5644893245433 987.9637956968502 796.0851287616272L449.03618397188245 1107.2346205616016C418.6925744458043 1124.7503563772368 381.3073645190394 1124.7503563772368 350.9637549929613 1107.2297169401527L-187.9638567320065 796.0802251401785C-218.30746625808467 778.5644893245433 -237.00007122146707 746.1858768971522 -237.00007122146707 711.1495016444326V88.85051804448403C-237.00007122146707 53.8141427917642 -218.30746625808467 21.435530364373335 -187.9638567320065 3.914890927289207L350.9637549929613 -307.23460087268523Z " transform="rotate(98, 400, 400)" opacity="0.14"></path><path d="M351.9644940641748 -292.80125443876005C381.68884625298597 -309.9595262581579 418.3110927118578 -309.9595262581579 448.03544490066895 -292.79645089121817L975.9645339373722 12.003051280185105C1005.6888861261834 29.161323099583 1024.000009355619 60.87914751825156 1024.000009355619 95.20049470458935V704.7994990473958C1024.000009355619 739.1208462337338 1005.6888861261834 770.8386706524022 975.9645339373722 788.0017460193419L448.03544490066895 1092.8012481907451C418.3110927118578 1109.959520010143 381.68884625298597 1109.959520010143 351.9644940641748 1092.7964446432034L-175.96459497252835 787.9969424718001C-205.68894716133963 770.8386706524022 -224.00007039077548 739.1208462337338 -224.00007039077548 704.7994990473958V95.20049470458935C-224.00007039077548 60.87914751825156 -205.68894716133963 29.161323099583 -175.96459497252835 11.99824773264345L351.9644940641748 -292.80125443876005Z " transform="rotate(96, 400, 400)" opacity="0.74"></path><path d="M352.9652331353882 -278.36787748725675C382.0703279869325 -295.1686853104171 417.92961097791124 -295.1686853104171 447.03470582945556 -278.36317401362203L963.9652721778941 20.08633852921048C993.0703670294383 36.88714635237079 1011.0000085249278 67.94418276231715 1011.0000085249278 101.5505018822729V698.4495269679378C1011.0000085249278 732.0558460878933 993.0703670294383 763.1128824978398 963.9652721778941 779.9183937946348L447.03470582945556 1078.3679063374673C417.92961097791124 1095.1687141606276 382.0703279869325 1095.1687141606276 352.9652331353882 1078.3632028638326L-163.9653332130502 779.9136903210003C-193.07042806459458 763.1128824978398 -211.0000695600839 732.0558460878933 -211.0000695600839 698.4495269679378V101.5505018822729C-211.0000695600839 67.94418276231715 -193.07042806459458 36.88714635237079 -163.9653332130502 20.081635055575816L352.9652331353882 -278.36787748725675Z " transform="rotate(94, 400, 400)" opacity="0.58"></path><path d="M353.9659722066017 -263.9344852769644C382.45180972087917 -280.37782910388734 417.5481292439646 -280.37782910388734 446.03396675824206 -263.92988187723677L951.9660104184159 28.16964103702469C980.4518479326935 44.612984863947645 998.000007694236 75.00923326517182 998.000007694236 107.90052431874551V692.0995701472684C998.000007694236 724.9908612008421 980.4518479326935 755.3871096020662 951.9660104184159 771.8350568287167L446.03396675824206 1063.934579742978C417.5481292439646 1080.377923569901 382.45180972087917 1080.377923569901 353.9659722066017 1063.9299763432507L-151.9660714535721 771.8304534289891C-180.45190896784953 755.3871096020662 -198.00006872939224 724.9908612008421 -198.00006872939224 692.0995701472684V107.90052431874551C-198.00006872939224 75.00923326517182 -180.45190896784953 44.612984863947645 -151.9660714535721 28.165037637297246L353.9659722066017 -263.9344852769644Z " transform="rotate(92, 400, 400)" opacity="0.52"></path><path d="M354.9667112778152 -249.50115410182826C382.8332914548258 -265.5870339325138 417.1666475100179 -265.5870339325138 445.03322768702856 -249.49665077600775L939.9667486589376 36.25288250968288C967.8333288359481 52.33876234036836 985.0000068635443 82.07422273287011 985.0000068635443 114.25048572006176V685.749552291443C985.0000068635443 717.9258152786347 967.8333288359481 747.6612756711365 939.9667486589376 763.7516588276424L445.03322768702856 1049.501192113333C417.1666475100179 1065.5870719440184 382.8332914548258 1065.5870719440184 354.9667112778152 1049.4966887875125L-139.96680969409397 763.7471555018219C-167.83338987110454 747.6612756711365 -185.00006789870065 717.9258152786347 -185.00006789870065 685.749552291443V114.25048572006176C-185.00006789870065 82.07422273287011 -167.83338987110454 52.33876234036836 -139.96680969409397 36.248379183862426L354.9667112778152 -249.50115410182826Z " transform="rotate(90, 400, 400)" opacity="0.75"></path><path d="M355.9674503490287 -235.06782292669214C383.21477318877237 -250.7962387611402 416.7851657760714 -250.7962387611402 444.03248861581505 -235.0634196747788L927.9674868994596 44.33612398234095C955.2148097392032 60.064539816788965 972.0000060328528 89.13921220056864 972.0000060328528 120.60044712137824V679.3995344356176C972.0000060328528 710.8607693564272 955.2148097392032 739.9354417402067 927.9674868994596 755.668260826568L444.03248861581505 1035.0678044836877C416.7851657760714 1050.7962203181357 383.21477318877237 1050.7962203181357 355.9674503490287 1035.0634012317744L-127.96754793461582 755.6638575746547C-155.2148707743595 739.9354417402067 -172.000067068009 710.8607693564272 -172.000067068009 679.3995344356176V120.60044712137824C-172.000067068009 89.13921220056864 -155.2148707743595 60.064539816788965 -127.96754793461582 44.33172073042772L355.9674503490287 -235.06782292669214Z " transform="rotate(88, 400, 400)" opacity="0.70"></path><path d="M356.9681894202422 -220.63443071639978C383.5962549227189 -236.00538255461038 416.40368404212484 -236.00538255461038 443.03174954460155 -220.63012753839354L915.9682251399815 52.419426490155274C942.5962906424581 67.79037832836593 959.0000052021612 96.20426270342318 959.0000052021612 126.95046955785074V673.0495776149482C959.0000052021612 703.7957844693756 942.5962906424581 732.209668844433 915.9682251399815 747.5849238606497L443.03174954460155 1020.6344778891987C416.40368404212484 1036.0054297274091 383.5962549227189 1036.0054297274091 356.9681894202422 1020.6301747111925L-115.96828617513768 747.5806206826437C-142.59635167761445 732.209668844433 -159.0000662373174 703.7957844693756 -159.0000662373174 673.0495776149482V126.95046955785074C-159.0000662373174 96.20426270342318 -142.59635167761445 67.79037832836593 -115.96828617513768 52.415123312149035L356.9681894202422 -220.63443071639978Z " transform="rotate(86, 400, 400)" opacity="0.25"></path><path d="M357.9689284914557 -206.20111480005272C383.97773665666546 -221.21460264202588 416.0222023081783 -221.21460264202588 442.03101047338805 -206.1969116959536L903.9689633805033 60.502652704024285C929.9777715457133 75.51614054599736 946.0000043714697 103.26923691233242 946.0000043714697 133.30041570037804V666.6995445003338C946.0000043714697 696.7307232883793 929.9777715457133 724.4838196547144 903.9689633805033 739.5015106007863L442.03101047338805 1006.2010750007644C416.0222023081783 1021.2145628427377 383.97773665666546 1021.2145628427377 357.9689284914557 1006.1968718966655L-103.96902441565959 739.4973074966874C-129.9778325808694 724.4838196547144 -146.00006540662582 696.7307232883793 -146.00006540662582 666.6995445003338V133.30041570037804C-146.00006540662582 103.26923691233242 -129.9778325808694 75.51614054599736 -103.96902441565959 60.498449599925266L357.9689284914557 -206.20111480005272Z " transform="rotate(84, 400, 400)" opacity="0.28"></path><path d="M358.9696675626692 -191.7677073309713C384.3592183906121 -206.42373117670698 415.64072057423164 -206.42373117670698 441.03027140217466 -191.76360430077932L891.9697016210253 68.58597047062767C917.3592524489682 83.24199431636339 933.0000035407779 110.33430267397614 933.0000035407779 139.65045339563972V660.3496029384537C933.0000035407779 689.6657536601169 917.3592524489682 716.75806201773 891.9697016210253 731.4181888936578L441.03027140217466 991.7677636650646C415.64072057423164 1006.4237875108004 384.3592183906121 1006.4237875108004 358.9696675626692 991.7636606348726L-91.96976265618144 731.4140858634655C-117.35931348412441 716.75806201773 -133.00006457593418 689.6657536601169 -133.00006457593418 660.3496029384537V139.65045339563972C-133.00006457593418 110.33430267397614 -117.35931348412441 83.24199431636339 -91.96976265618144 68.58186744043587L358.9696675626692 -191.7677073309713Z " transform="rotate(82, 400, 400)" opacity="0.35"></path><path d="M359.9704066338826 -177.33439141462424C384.74070012455866 -191.63295126412248 415.2592388402851 -191.63295126412248 440.02953233096116 -177.33038845833937L879.9704398615472 76.66919668449668C904.7407333522231 90.96775653399493 920.0000027100862 117.39927688288549 920.0000027100862 146.0003995381669V653.999569823839C920.0000027100862 682.6006924791204 904.7407333522231 709.0322128280111 879.9704398615472 723.3347756337939L440.02953233096116 977.3343607766301C415.2592388402851 991.6329206261282 384.74070012455866 991.6329206261282 359.9704066338826 977.3303578203452L-79.9705008967033 723.3307726775092C-104.74079438737937 709.0322128280111 -120.00006374524258 682.6006924791204 -120.00006374524258 653.999569823839V146.0003995381669C-120.00006374524258 117.39927688288549 -104.74079438737937 90.96775653399493 -79.9705008967033 76.66519372821199L359.9704066338826 -177.33439141462424Z " transform="rotate(80, 400, 400)" opacity="0.38"></path><path d="M360.9711457050961 -162.90104498069906C385.1221818585052 -176.84214083395986 414.87775710633855 -176.84214083395986 439.02879325974766 -162.8971420983213L867.971178102069 84.75245341594388C892.122214255478 98.6935492692046 907.0000018793949 124.46428160937285 907.0000018793949 152.35037619827233V647.6495672268027C907.0000018793949 675.535661815702 892.122214255478 701.3063941558703 867.971178102069 715.2513928915087L439.02879325974766 962.9009884057741C414.87775710633855 976.8420842590347 385.1221818585052 976.8420842590347 360.9711457050961 962.8970855233963L-67.97123913722521 715.2474900091311C-92.12227529063432 701.3063941558703 -107.000062914551 675.535661815702 -107.000062914551 647.6495672268027V152.35037619827233C-107.000062914551 124.46428160937285 -92.12227529063432 98.6935492692046 -67.97123913722521 84.74855053356623L360.9711457050961 -162.90104498069906Z " transform="rotate(78, 400, 400)" opacity="0.36"></path><path d="M361.9718847763096 -148.4676527704067C385.50366359245186 -162.05128462743002 414.4962753723919 -162.05128462743002 438.02805418853416 -148.4638499619361L855.9719163425907 92.83575592375814C879.5036951587331 106.41938778078156 894.0000010487031 131.5293321122275 894.0000010487031 158.70039863474483V641.2996104061335C894.0000010487031 668.4706769286508 879.5036951587331 693.5806212600967 855.9719163425907 707.1680559255906L438.02805418853416 948.4676618112849C414.4962753723919 962.0512936683083 385.50366359245186 962.0512936683083 361.9718847763096 948.4638590028144L-55.971977377747066 707.1642531171201C-79.50375619388933 693.5806212600967 -94.00006208385935 668.4706769286508 -94.00006208385935 641.2996104061335V158.70039863474483C-94.00006208385935 131.5293321122275 -79.50375619388933 106.41938778078156 -55.971977377747066 92.83195311528766L361.9718847763096 -148.4676527704067Z " transform="rotate(76, 400, 400)" opacity="0.53"></path><path d="M362.972623847523 -134.03427581890338C385.8851453263984 -147.26044367968927 414.11479363844535 -147.26044367968927 437.02731511732065 -134.0305730843399L843.9726545831127 100.91904317278352C866.885176061988 114.1452110335693 881.0000002180113 138.5943673562931 881.0000002180113 165.05040581242838V634.9496383266751C881.0000002180113 661.4056767828106 866.885176061988 685.8548331055342 843.9726545831127 699.0847037008834L437.02731511732065 934.0343199580068C414.11479363844535 947.2604878187929 385.8851453263984 947.2604878187929 362.972623847523 934.0306172234434L-43.97271561826892 699.0810009663201C-66.88523709714428 685.8548331055342 -81.00006125316776 661.4056767828106 -81.00006125316776 634.9496383266751V165.05040581242838C-81.00006125316776 138.5943673562931 -66.88523709714428 114.1452110335693 -43.97271561826892 100.91534043822003L362.972623847523 -134.03427581890338Z " transform="rotate(74, 400, 400)" opacity="0.15"></path><path d="M363.9733629187365 -119.6009293849782C386.26662706034494 -132.46963324952665 413.7333119044988 -132.46963324952665 436.02657604610727 -119.59732672432182L831.9733928236346 109.00229990423065C854.2666569652429 121.87100376877908 867.9999993873198 145.65937208278046 867.9999993873198 171.40038247253392V628.5996357296389C867.9999993873198 654.3406461193922 854.2666569652429 678.1290144333936 831.9733928236346 691.0013209585982L436.02657604610727 919.6009475871506C413.7333119044988 932.4696514516993 386.26662706034494 932.4696514516993 363.9733629187365 919.5973449264945L-31.973453858790776 690.9977182979419C-54.26671800039924 678.1290144333936 -68.00006042247611 654.3406461193922 -68.00006042247611 628.5996357296389V171.40038247253392C-68.00006042247611 145.65937208278046 -54.26671800039924 121.87100376877908 -31.973453858790776 108.99869724357438L363.9733629187365 -119.6009293849782Z " transform="rotate(72, 400, 400)" opacity="0.59"></path><path d="M364.97410198995 -105.16755243347495C386.6481087942916 -117.67879230178588 413.35183017055215 -117.67879230178588 435.02583697489376 -105.16404984672567L819.9741310641564 117.08558715325591C841.648137868498 129.5968270215668 854.9999985566283 152.72440732684606 854.9999985566283 177.75038965021736V622.2496636501804C854.9999985566283 647.2756459735517 841.648137868498 670.403226278831 819.9741310641564 682.917968733891L435.02583697489376 905.1676057338727C413.35183017055215 917.6788456021834 386.6481087942916 917.6788456021834 364.97410198995 905.1641031471233L-19.97419209931269 682.9144661471419C-41.64819890365419 670.403226278831 -55.00005959178452 647.2756459735517 -55.00005959178452 622.2496636501804V177.75038965021736C-55.00005959178452 152.72440732684606 -41.64819890365419 129.5968270215668 -19.97419209931269 117.08208456650675L364.97410198995 -105.16755243347495Z " transform="rotate(70, 400, 400)" opacity="0.52"></path><path d="M365.9748410611635 -90.73422125833883C387.02959052823815 -102.88799713041232 412.9703484366056 -102.88799713041232 434.02509790368026 -90.73081874549666L807.9748693046784 125.16882862591399C829.0296187717529 137.32260449798753 841.9999977259367 159.78939679454447 841.9999977259367 184.10035105153372V615.899645794355C841.9999977259367 640.2106000513443 829.0296187717529 662.6773923479012 807.9748693046784 674.8345707328167L434.02509790368026 890.7342181042272C412.9703484366056 902.887993976301 387.02959052823815 902.887993976301 365.9748410611635 890.7308155913852L-7.974930339834543 674.8311682199746C-29.0296798069092 662.6773923479012 -42.00005876109293 640.2106000513443 -42.00005876109293 615.899645794355V184.10035105153372C-42.00005876109293 159.78939679454447 -29.0296798069092 137.32260449798753 -7.974930339834543 125.16542611307193L365.9748410611635 -90.73422125833883Z " transform="rotate(68, 400, 400)" opacity="0.46"></path><path d="M366.975580132377 -76.30089008320272C387.4110722621847 -88.09720195903876 412.58886670265906 -88.09720195903876 433.02435883246676 -76.29758764426765L795.9756075452001 133.25207009857206C816.4110996750078 145.04838197440813 828.999996895245 166.85438626224277 828.999996895245 190.45031245285008V609.5496279385295C828.999996895245 633.1455541291367 816.4110996750078 654.9515584169714 795.9756075452001 666.7511727317424L433.02435883246676 876.3008304745822C412.58886670265906 888.0971423504184 387.4110722621847 888.0971423504184 366.975580132377 876.2975280356472L4.024331419643602 666.7478702928075C-16.411160710164154 654.9515584169714 -29.000057930401283 633.1455541291367 -29.000057930401283 609.5496279385295V190.45031245285008C-29.000057930401283 166.85438626224277 -16.411160710164154 145.04838197440813 4.024331419643602 133.24876765963717L366.975580132377 -76.30089008320272Z " transform="rotate(66, 400, 400)" opacity="0.14"></path><path d="M367.9763192035905 -61.86749787291035C387.79255399613135 -73.30634575250892 412.2073849687124 -73.30634575250892 432.02361976125326 -61.864295507882446L783.9763457857221 141.3353726063864C803.7925805782629 152.77422048598498 815.9999960645534 173.91943676509743 815.9999960645534 196.80033488932258V603.1996711178604C815.9999960645534 626.0805692420855 803.7925805782629 647.2257855211978 783.9763457857221 658.6678357658243L432.02361976125326 861.867503880093C412.2073849687124 873.3063517596918 387.79255399613135 873.3063517596918 367.9763192035905 861.8643015150653L16.02359317912169 658.6646334007964C-3.792641613419107 647.2257855211978 -16.000057099709693 626.0805692420855 -16.000057099709693 603.1996711178604V196.80033488932258C-16.000057099709693 173.91943676509743 -3.792641613419107 152.77422048598498 16.02359317912169 141.3321702413586L367.9763192035905 -61.86749787291035Z " transform="rotate(64, 400, 400)" opacity="0.82"></path><path d="M368.977058274804 -47.43410566261798C388.1740357300779 -58.51548954597911 411.82590323476586 -58.51548954597911 431.02288069003976 -47.431003371497184L771.977084026244 149.41867511420077C791.174061481518 160.5000589975619 802.9999952338619 180.9844872679521 802.9999952338619 203.15035732579514V596.849714297191C802.9999952338619 619.0155843550342 791.174061481518 639.5000126254243 771.977084026244 650.5844987999061L431.02288069003976 847.4341772856042C411.82590323476586 858.5155611689652 388.1740357300779 858.5155611689652 368.977058274804 847.4310749944834L28.022854938599835 650.5813965087855C8.82587748332594 639.5000126254243 -3.0000562690181027 619.0155843550342 -3.0000562690181027 596.849714297191V203.15035732579514C-3.0000562690181027 180.9844872679521 8.82587748332594 160.5000589975619 28.022854938599835 149.41557282308008L368.977058274804 -47.43410566261798Z " transform="rotate(62, 400, 400)" opacity="0.17"></path><path d="M369.9777973460175 -33.00077448748186C388.55551746402443 -43.72469437460552 411.4444215008193 -43.72469437460552 430.02214161882625 -32.99777227026823L759.9778222667658 157.5019165868589C778.5555423847727 168.22583647398255 789.9999944031701 188.04947673565044 789.9999944031701 209.50031872711156V590.4996964413657C789.9999944031701 611.9505384328268 778.5555423847727 631.7741786944946 759.9778222667658 642.5011007988319L430.02214161882625 833.0007896559589C411.4444215008193 843.7247095430826 388.55551746402443 843.7247095430826 369.9777973460175 832.9977874387455L40.02211669807798 642.4980985816183C21.44439658007093 631.7741786944946 9.999944561673544 611.9505384328268 9.999944561673544 590.4996964413657V209.50031872711156C9.999944561673544 188.04947673565044 21.44439658007093 168.22583647398255 40.02211669807798 157.49891436964526L369.9777973460175 -33.00077448748186Z " transform="rotate(60, 400, 400)" opacity="0.94"></path><path d="M370.9785364172309 -18.567382277189495C388.9369991979711 -28.93383816807571 411.06293976687266 -28.93383816807571 429.02140254761287 -18.564480133882967L747.9785605072877 165.58521909467322C765.9370232880278 175.9516749855594 776.9999935724786 195.11452723850505 776.9999935724786 215.85034116358406V584.1497396206964C776.9999935724786 604.8855535457755 765.9370232880278 624.0484057987211 747.9785605072877 634.4177638329138L429.02140254761287 818.5674630614699C411.06293976687266 828.9339189523562 388.9369991979711 828.9339189523562 370.9785364172309 818.5645609181634L52.021378457556125 634.4148616896073C34.062915676815976 624.0484057987211 22.999945392365134 604.8855535457755 22.999945392365134 584.1497396206964V215.85034116358406C22.999945392365134 195.11452723850505 34.062915676815976 175.9516749855594 52.021378457556125 165.58231695136675L370.9785364172309 -18.567382277189495Z " transform="rotate(58, 400, 400)" opacity="0.88"></path><path d="M371.9793060060225 -4.134112137209627C389.31851144949576 -14.1431040318584 410.68148855050424 -14.1431040318584 428.0206939939775 -4.131310067810205L735.9793292653876 173.66839953217504C753.3185347088609 183.67739142682376 764.0000232593651 202.17945567104715 764.0000232593651 222.20024152974418V577.7996607297147C764.0000232593651 597.8204465884116 753.3185347088609 616.3225108326351 735.9793292653876 626.3343047966831L428.0206939939775 804.1340143966684C410.68148855050424 814.1430062913173 389.31851144949576 814.1430062913173 371.9793060060225 804.1312123272692L64.02067073461234 626.3315027272838C46.68146529113915 616.3225108326351 35.99997674063491 597.8204465884116 35.99997674063491 577.7996607297147V222.20024152974418C35.99997674063491 202.17945567104715 46.68146529113915 183.67739142682376 64.02067073461234 173.66559746277574L371.9793060060225 -4.134112137209627Z " transform="rotate(56, 400, 400)" opacity="0.39"></path><path d="M372.980045077236 10.299280073082741C389.6999931834423 0.6477521746714388 410.3000068165577 0.6477521746714388 427.019954922764 10.301982068575L723.9800675059096 181.75170203998937C740.7000156121159 191.40322993840067 751.0000224286736 209.24450617390175 751.0000224286736 228.55026396621673V571.4497039090454C751.0000224286736 590.7554617013603 740.7000156121159 608.5967379368615 723.9800675059096 618.250967830765L427.019954922764 789.7006878021793C410.3000068165577 799.3522157005907 389.6999931834423 799.3522157005907 372.980045077236 789.697985806687L76.01993249409048 618.2482658352728C59.29998438788414 608.5967379368615 48.9999775713265 590.7554617013603 48.9999775713265 571.4497039090454V228.55026396621673C48.9999775713265 209.24450617390175 59.29998438788414 191.40322993840067 76.01993249409048 181.74900004449717L372.980045077236 10.299280073082741Z " transform="rotate(54, 400, 400)" opacity="0.52"></path><path d="M373.9807841484494 24.73267228337511C390.08147491738896 15.438608381201249 409.91852508261104 15.438608381201249 426.0192158515506 24.735274204960263L711.9808057464313 189.83500454780375C728.0814965153708 199.12906844997758 738.0000215979819 216.30955667675642 738.0000215979819 234.9002864026894V565.0997470883763C738.0000215979819 583.6904768143091 728.0814965153708 600.8709650410881 711.9808057464313 610.1676308648471L426.0192158515506 775.2673612076904C409.91852508261104 784.5614251098643 390.08147491738896 784.5614251098643 373.9807841484494 775.2647592861053L88.01919425356863 610.165028943262C71.91850348462918 600.8709650410881 61.99997840201809 583.6904768143091 61.99997840201809 565.0997470883763V234.9002864026894C61.99997840201809 216.30955667675642 71.91850348462918 199.12906844997758 88.01919425356863 189.83240262621865L373.9807841484494 24.73267228337511Z " transform="rotate(52, 400, 400)" opacity="0.93"></path><path d="M374.9815232196629 39.16600345851123C390.4629566513355 30.22940355257481 409.5370433486645 30.22940355257481 425.0184767803371 39.168505306189275L699.9815439869533 197.91824602046182C715.4629774186258 206.85484592639818 725.0000207672903 223.37454614445477 725.0000207672903 241.25024780400565V558.7497292325507C725.0000207672903 576.6254308921018 715.4629774186258 593.1451311101583 699.9815439869533 602.0842328637726L425.0184767803371 760.8339735780452C409.5370433486645 769.7705734839816 390.4629566513355 769.7705734839816 374.9815232196629 760.8314717303673L100.01845601304677 602.0817310160947C84.53702258137423 593.1451311101583 74.99997923270973 576.6254308921018 74.99997923270973 558.7497292325507V241.25024780400565C74.99997923270973 223.37454614445477 84.53702258137423 206.85484592639818 100.01845601304677 197.9157441727839L374.9815232196629 39.16600345851123Z " transform="rotate(50, 400, 400)" opacity="0.57"></path><path d="M375.9822622908764 53.59936515122547C390.84443838528205 45.02022924152652 409.15556161471795 45.02022924152652 424.0177377091236 53.601766924996355L687.9822822274751 206.00151801069802C702.8444583218808 214.58065392039697 712.0000199365986 230.43956612973125 712.0000199365986 247.60023972290014V552.3997418943034C712.0000199365986 569.5604154874724 702.8444583218808 585.4193276968066 687.9822822274751 594.0008653802764L424.0177377091236 746.400616465978C409.15556161471795 754.979752375677 390.84443838528205 754.979752375677 375.9822622908764 746.3982146922071L112.01771777252486 593.9984636065055C97.15554167811928 585.4193276968066 87.99998006340132 569.5604154874724 87.99998006340132 552.3997418943034V247.60023972290014C87.99998006340132 230.43956612973125 97.15554167811928 214.58065392039697 112.01771777252486 205.9991162369272L375.9822622908764 53.59936515122547Z " transform="rotate(48, 400, 400)" opacity="0.08"></path><path d="M376.9830013620899 68.03272684393971C391.2259201192287 59.81105493047821 408.7740798807713 59.81105493047821 423.0169986379101 68.03502854380349L675.983020467997 214.08479000093422C690.2259392251358 222.3064619143957 699.0000191059071 237.50458611500778 699.0000191059071 253.95023164179463V546.0497545560561C699.0000191059071 562.4954000828429 690.2259392251358 577.693524283455 675.983020467997 585.9174978967802L423.0169986379101 731.9672593539109C408.7740798807713 740.1889312673724 391.2259201192287 740.1889312673724 376.9830013620899 731.9649576540472L124.016979532003 585.9151961969164C109.77406077486427 577.693524283455 100.99998089409291 562.4954000828429 100.99998089409291 546.0497545560561V253.95023164179463C100.99998089409291 237.50458611500778 109.77406077486427 222.3064619143957 124.016979532003 214.0824883010705L376.9830013620899 68.03272684393971Z " transform="rotate(46, 400, 400)" opacity="0.79"></path><path d="M377.9837404333034 82.46608853665396C391.60740185317525 74.60188061942989 408.39259814682475 74.60188061942989 422.0162595666966 82.46829016261063L663.9837587085188 222.16806199117048C677.6074201283907 230.03226990839448 686.0000182752154 244.56960610028432 686.0000182752154 260.3002235606891V539.6997672178088C686.0000182752154 555.4303846782136 677.6074201283907 569.9677208701033 663.9837587085188 577.834130413284L422.0162595666966 717.5339022418439C408.39259814682475 725.3981101590679 391.60740185317525 725.3981101590679 377.9837404333034 717.5317006158872L136.01624129148115 577.8319287873273C122.39257987160931 569.9677208701033 113.99998172478456 555.4303846782136 113.99998172478456 539.6997672178088V260.3002235606891C113.99998172478456 244.56960610028432 122.39257987160931 230.03226990839448 136.01624129148115 222.16586036521386L377.9837404333034 82.46608853665396Z " transform="rotate(44, 400, 400)" opacity="0.51"></path><path d="M378.9844795045169 96.89945022936814C391.9888835871218 89.3927063083816 408.0111164128782 89.3927063083816 421.0155204954831 96.90155178141771L651.9844969490407 230.25133398140667C664.9889010316457 237.7580779023932 673.0000174445239 251.63462608556074 673.0000174445239 266.65021547958355V533.3497798795614C673.0000174445239 548.3653692735842 664.9889010316457 562.2419174567517 651.9844969490407 569.7507629297877L421.0155204954831 703.1005451297767C408.0111164128782 710.6072890507634 391.9888835871218 710.6072890507634 378.9844795045169 703.0984435777273L148.0155030509593 569.7486613777382C135.01109896835436 562.2419174567517 126.99998255547615 548.3653692735842 126.99998255547615 533.3497798795614V266.65021547958355C126.99998255547615 251.63462608556074 135.01109896835436 237.7580779023932 148.0155030509593 230.24923242935716L378.9844795045169 96.89945022936814Z " transform="rotate(42, 400, 400)" opacity="0.99"></path><path d="M379.98521857573036 111.33281192208239C392.37036532106845 104.18353199733329 407.62963467893155 104.18353199733329 420.0147814242696 111.33481340022485L639.9852351895627 238.33460597164287C652.3703819349006 245.483885896392 660.0000166138321 258.6996460708373 660.0000166138321 273.000207398478V526.999792541314C660.0000166138321 541.3003538689547 652.3703819349006 554.5161140434001 639.9852351895627 561.6673954462915L420.0147814242696 688.6671880177096C407.62963467893155 695.8164679424586 392.37036532106845 695.8164679424586 379.98521857573036 688.6651865395671L160.01476481043738 561.6653939681491C147.62961806509935 554.5161140434001 139.9999833861678 541.3003538689547 139.9999833861678 526.999792541314V273.000207398478C139.9999833861678 258.6996460708373 147.62961806509935 245.483885896392 160.01476481043738 238.33260449350053L379.98521857573036 111.33281192208239Z " transform="rotate(40, 400, 400)" opacity="0.12"></path><path d="M380.9859729057329 125.76617361479663C392.75186231380405 118.97435768628497 407.24816820377407 118.97435768628497 419.01405761184515 125.76807501903198L627.9859886888735 246.41787796187907C639.7518780969447 253.20969389039078 647.0000310419297 265.76466605611375 647.0000310419297 279.3501993173724V520.6498052030668C647.0000310419297 534.2353384643254 639.7518780969447 546.7903106300483 627.9859886888735 553.5840279627953L419.01405761184515 674.2338309056424C407.24816820377407 681.0256468341541 392.75186231380405 681.0256468341541 380.9859729057329 674.2319295014072L172.0140418287046 553.58212655856C160.24815242063346 546.7903106300483 152.99999947564845 534.2353384643254 152.99999947564845 520.6498052030668V279.3501993173724C152.99999947564845 265.76466605611375 160.24815242063346 253.20969389039078 172.0140418287046 246.41597655764383L380.9859729057329 125.76617361479663Z " transform="rotate(38, 400, 400)" opacity="0.37"></path><path d="M381.9866967181573 140.19953530751087C393.13332878896153 133.7651833752367 406.86667121103847 133.7651833752367 418.0133032818427 140.20133663783906L615.9867116706064 254.50114995211533C627.1333437414105 260.9355018843895 634.000014952449 272.82968604139023 634.000014952449 285.70019123626696V514.2998178648195C634.000014952449 527.1703230596961 627.1333437414105 539.0645072166968 615.9867116706064 545.5006604792991L418.0133032818427 659.8004737935753C406.86667121103847 666.2348257258496 393.13332878896153 666.2348257258496 381.9866967181573 659.7986724632473L184.01328832939367 545.498859148971C172.86665625858944 539.0645072166968 165.99998504755098 527.1703230596961 165.99998504755098 514.2998178648195V285.70019123626696C165.99998504755098 272.82968604139023 172.86665625858944 260.9355018843895 184.01328832939367 254.4993486217872L381.9866967181573 140.19953530751087Z " transform="rotate(36, 400, 400)" opacity="0.62"></path><path d="M382.9874357893708 154.63288174143605C393.51481052290814 148.5559938053993 406.48518947709186 148.5559938053993 417.0125642106292 154.63458299785714L603.9874499111282 262.58440668356246C614.5148246446655 268.66129461959923 621.0000141217574 279.8946907678777 621.0000141217574 292.05016789637233V507.9498152677829C621.0000141217574 520.1052923962776 614.5148246446655 531.3386885445561 603.9874499111282 537.4172777370138L417.0125642106292 645.3671014227191C406.48518947709186 651.443989358756 393.51481052290814 651.443989358756 382.9874357893708 645.3654001662981L196.01255008887176 537.4155764805928C185.4851753553345 531.3386885445561 178.99998587824263 520.1052923962776 178.99998587824263 507.9498152677829V292.05016789637233C178.99998587824263 279.8946907678777 185.4851753553345 268.66129461959923 196.01255008887176 262.58270542714143L382.9874357893708 154.63288174143605Z " transform="rotate(34, 400, 400)" opacity="0.25"></path><path d="M383.9881748605843 169.06625869293936C393.89629225685474 163.34683475314006 406.10370774314526 163.34683475314006 416.0118251394157 169.06785987545334L591.9881881516501 270.6676939325877C601.8963055479205 276.387117872387 608.0000132910658 286.95972601194325 608.0000132910658 298.4001750740558V501.5998431883247C608.0000132910658 513.0402922504372 601.8963055479205 523.6129003899935 591.9881881516501 529.3339255123067L416.0118251394157 630.933759569441C406.10370774314526 636.6531835092404 393.89629225685474 636.6531835092404 383.9881748605843 630.9321583869272L208.0118118483499 529.3323243297928C198.10369445207948 523.6129003899935 191.99998670893422 513.0402922504372 191.99998670893422 501.5998431883247V298.4001750740558C191.99998670893422 286.95972601194325 198.10369445207948 276.387117872387 208.0118118483499 270.66609275007386L383.9881748605843 169.06625869293936Z " transform="rotate(32, 400, 400)" opacity="0.86"></path><path d="M384.9889139317978 183.49960512686454C394.2777739908013 178.1376451833027 405.7222260091987 178.1376451833027 415.0110860682022 183.50110623547135L579.988926392172 278.7509506640349C589.2777864511754 284.11291060759675 595.0000124603741 294.02473073843066 595.0000124603741 304.75015173416125V495.2498405912884C595.0000124603741 505.97526158701885 589.2777864511754 515.8870817178528 579.988926392172 521.2505427700214L415.0110860682022 616.5003871985849C405.7222260091987 621.8623471421467 394.2777739908013 621.8623471421467 384.9889139317978 616.4988860899782L220.01107360782805 521.2490416614146C210.72221354882453 515.8870817178528 204.9999875396258 505.97526158701885 204.9999875396258 495.2498405912884V304.75015173416125C204.9999875396258 294.02473073843066 210.72221354882453 284.11291060759675 220.01107360782805 278.7494495554281L384.9889139317978 183.49960512686454Z " transform="rotate(30, 400, 400)" opacity="0.40"></path><path d="M385.98965300301126 197.93295156078972C394.6592557247479 192.92845561346533 405.3407442752521 192.92845561346533 414.01034699698874 197.93435259548943L567.9896646326938 286.83420739548205C576.6592673544304 291.8387033428064 582.0000116296826 301.08973546491814 582.0000116296826 311.1001283942666V488.8998379942518C582.0000116296826 498.91023092360035 576.6592673544304 508.1612630457121 567.9896646326938 513.1671600277361L414.01034699698874 602.0670148277287C405.3407442752521 607.0715107750532 394.6592557247479 607.0715107750532 385.98965300301126 602.0656137930291L232.0103353673062 513.1657589930364C223.34073264556957 508.1612630457121 217.99998837031745 498.91023092360035 217.99998837031745 488.8998379942518V311.1001283942666C217.99998837031745 301.08973546491814 223.34073264556957 291.8387033428064 232.0103353673062 286.8328063607824L385.98965300301126 197.93295156078972Z " transform="rotate(28, 400, 400)" opacity="0.86"></path><path d="M386.9903920742247 212.3663437710821C395.0407374586945 207.71931181999514 404.9592625413055 207.71931181999514 413.0096079257753 212.3676447318747L555.9904028732157 294.9175099032964C564.0407482576854 299.5645418543833 569.000010798991 308.15478596777274 569.000010798991 317.45015083073923V482.54988117358266C569.000010798991 491.84524603654904 564.0407482576854 500.4354901499386 555.9904028732157 505.08382306181807L413.0096079257753 587.6336882332398C404.9592625413055 592.2807201843267 395.0407374586945 592.2807201843267 386.9903920742247 587.6323872724472L244.00959712678429 505.08252210102546C235.95925174231462 500.4354901499386 230.99998920100904 491.84524603654904 230.99998920100904 482.54988117358266V317.45015083073923C230.99998920100904 308.15478596777274 235.95925174231462 299.5645418543833 244.00959712678429 294.9162089425039L386.9903920742247 212.3663437710821Z " transform="rotate(26, 400, 400)" opacity="0.75"></path><path d="M387.9911311454382 226.7996749462182C395.422219192641 222.51010699136873 404.577780807359 222.51010699136873 412.0088688545618 226.80087583310365L543.9911411137375 303.00075137595445C551.4222291609403 307.290319330804 556.0000099682993 315.2197754354711 556.0000099682993 323.80011223205554V476.19986331775715C556.0000099682993 484.7802001143416 551.4222291609403 492.7096562190088 543.9911411137375 497.00042506074374L412.0088688545618 573.2003006035945C404.577780807359 577.489868558444 395.422219192641 577.489868558444 387.9911311454382 573.199099716709L256.00885888626243 496.99922417385824C248.5777708390596 492.7096562190088 243.9999900317007 484.7802001143416 243.9999900317007 476.19986331775715V323.80011223205554C243.9999900317007 315.2197754354711 248.5777708390596 307.290319330804 256.00885888626243 302.99955048906907L387.9911311454382 226.7996749462182Z " transform="rotate(24, 400, 400)" opacity="0.46"></path><path d="M388.9918702166517 241.23303663893245C395.8037009265876 237.30093268032041 404.1962990734124 237.30093268032041 411.0081297833483 241.23413745191078L531.9918793542595 311.0840233661907C538.8037100641953 315.0161273248027 543.0000091376078 322.2847954207476 543.0000091376078 330.15010415095V469.8498759795099C543.0000091376078 477.7151847097123 538.8037100641953 484.98385280565714 531.9918793542595 488.9170575772475L411.0081297833483 558.7669434915274C404.1962990734124 562.6990474501395 395.8037009265876 562.6990474501395 388.9918702166517 558.765842678549L268.0081206457406 488.91595676426914C261.19628993580466 484.98385280565714 256.9999908623923 477.7151847097123 256.9999908623923 469.8498759795099V330.15010415095C256.9999908623923 322.2847954207476 261.19628993580466 315.0161273248027 268.0081206457406 311.08292255321237L388.9918702166517 241.23303663893245Z " transform="rotate(22, 400, 400)" opacity="0.96"></path><path d="M389.9926092878652 255.6664288492248C396.1851826605342 252.09178888685025 403.8148173394658 252.09178888685025 410.0073907121348 255.66742958829602L519.9926175947813 319.16732587400503C526.1851909674504 322.74196583637956 530.000008306916 329.34984592360223 530.000008306916 336.5001265874226V463.4999191588406C530.000008306916 470.65019982266097 526.1851909674504 477.25807990988363 519.9926175947813 480.83372061132934L410.0073907121348 544.3336168970384C403.8148173394658 547.9082568594129 396.1851826605342 547.9082568594129 389.9926092878652 544.3326161579671L280.0073824052187 480.83271987225817C273.8148090325497 477.25807990988363 269.99999169308387 470.65019982266097 269.99999169308387 463.4999191588406V336.5001265874226C269.99999169308387 329.34984592360223 273.8148090325497 322.74196583637956 280.0073824052187 319.16632513493386L389.9926092878652 255.6664288492248Z " transform="rotate(20, 400, 400)" opacity="0.80"></path><path d="M390.99334835907865 270.0997447655718C396.56666439448077 266.88256879943475 403.43333560551923 266.88256879943475 409.00665164092135 270.10064543073594L507.9933558353032 327.2505520878741C513.5666718707052 330.46772805401116 517.0000074762245 336.4148201325115 517.0000074762245 342.8500727299499V457.14988604422615C517.0000074762245 463.58513864166446 513.5666718707052 469.5322307201648 507.9933558353032 472.75030735146595L409.00665164092135 529.900214008604C403.43333560551923 533.1173899747412 396.56666439448077 533.1173899747412 390.99334835907865 529.8993133434401L292.0066441646968 472.7494066863019C286.4333281292947 469.5322307201648 282.9999925237755 463.58513864166446 282.9999925237755 457.14988604422615V342.8500727299499C282.9999925237755 336.4148201325115 286.4333281292947 330.46772805401116 292.0066441646968 327.24965142271003L390.99334835907865 270.0997447655718Z " transform="rotate(18, 400, 400)" opacity="0.27"></path><path d="M391.99408743029215 284.5331140876806C396.94814612842737 281.67340211778094 403.05185387157263 281.67340211778094 408.00591256970785 284.5339146789376L495.99409407582505 335.3338317075048C500.94815277396026 338.1935436774045 504.0000066455329 343.47984774718253 504.0000066455329 349.20007227823885V450.7999063353733C504.0000066455329 456.52013086642955 500.94815277396026 461.80643493620767 495.99409407582505 464.6669474973643L408.00591256970785 515.4668645259314C403.05185387157263 518.3265764958312 396.94814612842737 518.3265764958312 391.99408743029215 515.4660639346746L304.00590592417495 464.6661469061073C299.05184722603974 461.80643493620767 295.9999933544671 456.52013086642955 295.9999933544671 450.7999063353733V349.20007227823885C295.9999933544671 343.47984774718253 299.05184722603974 338.1935436774045 304.00590592417495 335.33303111624787L391.99408743029215 284.5331140876806Z " transform="rotate(16, 400, 400)" opacity="0.83"></path><path d="M392.9948265015056 298.96648340978936C397.32962786237397 296.4642354361272 402.67037213762603 296.4642354361272 407.0051734984944 298.9671839271392L483.9948323163469 343.41711132713556C488.3296336772152 345.91935930079774 491.0000058148413 350.5448753618536 491.0000058148413 355.55007182652787V444.44992662652044C491.0000058148413 449.4551230911947 488.3296336772152 454.08063915225057 483.9948323163469 456.5835876432626L407.0051734984944 501.0335150432589C402.67037213762603 503.5357630169211 397.32962786237397 503.5357630169211 392.9948265015056 501.0328145259091L316.0051676836531 456.58288712591275C311.6703663227848 454.08063915225057 308.9999941851587 449.4551230911947 308.9999941851587 444.44992662652044V355.55007182652787C308.9999941851587 350.5448753618536 311.6703663227848 345.91935930079774 316.0051676836531 343.4164108097857L392.9948265015056 298.96648340978936Z " transform="rotate(14, 400, 400)" opacity="0.72"></path><path d="M393.9955655727191 313.3998374731091C397.7111095963205 311.25505349568436 402.2888904036795 311.25505349568436 406.0044344272809 313.4004379165518L471.99557055686876 351.5003756879772C475.71111458047017 353.645159665402 478.00000498414965 357.60988771773555 478.00000498414965 361.90005611602777V438.0999316588786C478.00000498414965 442.3901000571708 475.71111458047017 446.3548281095044 471.99557055686876 448.50021253037187L406.0044344272809 486.60015030179727C402.2888904036795 488.744934279222 397.7111095963205 488.744934279222 393.9955655727191 486.5995498583545L328.00442944313124 448.4996120869291C324.28888541952983 446.3548281095044 321.99999501585035 442.3901000571708 321.99999501585035 438.0999316588786V361.90005611602777C321.99999501585035 357.60988771773555 324.28888541952983 353.645159665402 328.00442944313124 351.49977524453453L393.9955655727191 313.3998374731091Z " transform="rotate(12, 400, 400)" opacity="1.00"></path><path d="M394.9963046439326 327.8331991658233C398.0925913302671 326.0458791846361 401.9074086697329 326.0458791846361 405.0036953560674 327.83369953535896L459.99630879739067 359.5836476782134C463.0925954837252 361.3709676594007 465.000004153458 364.674907703012 465.000004153458 368.2500480349222V431.74994432063124C465.000004153458 435.3250846525414 463.0925954837252 438.6290246961528 459.99630879739067 440.4168450468756L405.0036953560674 472.16679318973013C401.9074086697329 473.95411317091737 398.0925913302671 473.95411317091737 394.9963046439326 472.1662928201945L340.00369120260933 440.41634467734C336.9074045162748 438.6290246961528 334.99999584654194 435.3250846525414 334.99999584654194 431.74994432063124V368.2500480349222C334.99999584654194 364.674907703012 336.9074045162748 361.3709676594007 340.00369120260933 359.58314730867784L394.9963046439326 327.8331991658233Z " transform="rotate(10, 400, 400)" opacity="0.48"></path><path d="M395.99704371514605 342.26656085853756C398.4740730642137 340.8367048735878 401.5259269357863 340.8367048735878 404.00295628485395 342.2669611541661L447.9970470379125 367.6669196684497C450.47407638698013 369.0967756533995 452.0000033227665 371.73992768828856 452.0000033227665 374.6000399538167V425.3999569823839C452.0000033227665 428.26006924791204 450.47407638698013 430.9032212828011 447.9970470379125 432.3334775633794L404.00295628485395 457.733436077663C401.5259269357863 459.16329206261287 398.4740730642137 459.16329206261287 395.99704371514605 457.73303578203456L352.0029529620875 432.3330772677509C349.52592361301987 430.9032212828011 347.9999966772336 428.26006924791204 347.9999966772336 425.3999569823839V374.6000399538167C347.9999966772336 371.73992768828856 349.52592361301987 369.0967756533995 352.0029529620875 367.6665193728212L395.99704371514605 342.26656085853756Z " transform="rotate(8, 400, 400)" opacity="0.50"></path><path d="M396.99778278635955 356.6999225512518C398.85555479816026 355.62753056253945 401.14444520183974 355.62753056253945 403.00221721364045 356.7002227729732L435.9977852784344 375.7501916586859C437.8555572902351 376.82258364739823 439.0000024920748 378.80494767356504 439.0000024920748 380.9500318727112V419.0499696441366C439.0000024920748 421.19505384328266 437.8555572902351 423.17741786944947 435.9977852784344 424.2501100798832L403.00221721364045 443.3000789655959C401.14444520183974 444.37247095430826 398.85555479816026 444.37247095430826 396.99778278635955 443.2997787438745L364.0022147215656 424.2498098581618C362.1444427097649 423.17741786944947 360.9999975079252 421.19505384328266 360.9999975079252 419.0499696441366V380.9500318727112C360.9999975079252 378.80494767356504 362.1444427097649 376.82258364739823 364.0022147215656 375.7498914369645L396.99778278635955 356.6999225512518Z " transform="rotate(6, 400, 400)" opacity="0.84"></path><path d="M397.99852185757305 371.13328424396605C399.23703653210686 370.4183562514911 400.76296346789314 370.4183562514911 402.00147814242695 371.13348439178026L423.9985235189563 383.8334636489221C425.2370381934901 384.548391641397 426.00000166138324 385.8699676588415 426.00000166138324 387.3000237916056V412.6999823058892C426.00000166138324 414.1300384386533 425.2370381934901 415.4516144560978 423.9985235189563 416.16674259638694L402.00147814242695 428.86672185352876C400.76296346789314 429.5816498460037 399.23703653210686 429.5816498460037 397.99852185757305 428.86652170571455L376.00147648104377 416.1665424485727C374.76296180650996 415.4516144560978 373.99999833861676 414.1300384386533 373.99999833861676 412.6999823058892V387.3000237916056C373.99999833861676 385.8699676588415 374.76296180650996 384.548391641397 376.00147648104377 383.83326350110787L397.99852185757305 371.13328424396605Z " transform="rotate(4, 400, 400)" opacity="0.23"></path><path d="M398.9992609287865 385.5666459366803C399.6185182660534 385.2091819404428 400.3814817339466 385.2091819404428 401.0007390712135 385.5667460105874L411.99926175947814 391.91673563915833C412.61851909674505 392.27419963539575 413.0000008306916 392.93498764411805 413.0000008306916 393.65001571050004V406.34999496764186C413.0000008306916 407.0650230340239 412.61851909674505 407.72581104274616 411.99926175947814 408.08337511289074L401.0007390712135 414.4333647414617C400.3814817339466 414.7908287376991 399.6185182660534 414.7908287376991 398.9992609287865 414.4332646675545L388.00073824052186 408.08327503898363C387.38148090325495 407.72581104274616 386.9999991693084 407.0650230340239 386.9999991693084 406.34999496764186V393.65001571050004C386.9999991693084 392.93498764411805 387.38148090325495 392.27419963539575 388.00073824052186 391.91663556525117L398.9992609287865 385.5666459366803Z " transform="rotate(2, 400, 400)" opacity="0.84"></path></g></svg>