<?xml version="1.0" encoding="UTF-8"?>
<svg height="50px" version="1.1" viewBox="0 0 123 50" width="123px" xmlns="http://www.w3.org/2000/svg">
  <g id="1nce">
    <path d="M 36.59375 24.921875 C 37.585938 24.859375 38.582031 24.8125 39.578125 24.78125 C 39.917969 24.765625 40.253906 24.75 40.59375 24.726562 C 43.3125 24.546875 43.3125 24.546875 44.144531 25.164062 C 44.71875 25.773438 45.117188 26.476562 45.496094 27.21875 C 45.710938 27.628906 45.964844 27.988281 46.238281 28.359375 C 46.398438 28.589844 46.558594 28.816406 46.722656 29.046875 C 46.808594 29.175781 46.898438 29.300781 46.988281 29.433594 C 47.355469 29.957031 47.722656 30.484375 48.089844 31.007812 C 48.363281 31.402344 48.636719 31.792969 48.910156 32.183594 C 49.046875 32.375 49.046875 32.375 49.179688 32.570312 C 49.832031 33.5 50.488281 34.429688 51.144531 35.359375 C 51.613281 36.019531 52.074219 36.683594 52.535156 37.347656 C 52.597656 37.441406 52.664062 37.535156 52.726562 37.628906 C 52.882812 37.855469 53.042969 38.082031 53.199219 38.308594 C 53.238281 38.144531 53.28125 37.980469 53.324219 37.8125 C 53.71875 36.277344 54.117188 34.742188 54.511719 33.207031 C 54.714844 32.417969 54.921875 31.628906 55.125 30.839844 C 55.320312 30.078125 55.515625 29.320312 55.710938 28.558594 C 55.789062 28.265625 55.863281 27.976562 55.9375 27.683594 C 56.042969 27.277344 56.148438 26.871094 56.253906 26.464844 C 56.28125 26.34375 56.3125 26.222656 56.347656 26.097656 C 56.5625 25.265625 56.5625 25.265625 56.734375 24.921875 C 59.015625 24.921875 61.300781 24.921875 63.652344 24.921875 C 63.550781 25.746094 63.441406 26.464844 63.242188 27.257812 C 63.203125 27.414062 63.203125 27.414062 63.164062 27.570312 C 63.082031 27.914062 62.996094 28.257812 62.910156 28.601562 C 62.847656 28.847656 62.785156 29.09375 62.726562 29.339844 C 62.59375 29.867188 62.460938 30.394531 62.332031 30.925781 C 62.015625 32.179688 61.707031 33.4375 61.394531 34.695312 C 61.320312 34.984375 61.25 35.273438 61.179688 35.5625 C 60.421875 38.609375 59.679688 41.65625 58.941406 44.707031 C 58.847656 45.085938 58.753906 45.464844 58.664062 45.84375 C 58.328125 47.230469 57.992188 48.613281 57.65625 50 C 56.699219 50.054688 55.742188 50.09375 54.785156 50.117188 C 54.460938 50.128906 54.132812 50.144531 53.808594 50.164062 C 51.191406 50.308594 51.191406 50.308594 50.449219 49.804688 C 49.960938 49.308594 49.640625 48.734375 49.335938 48.113281 C 49.152344 47.753906 48.921875 47.441406 48.675781 47.121094 C 48.601562 47.015625 48.527344 46.914062 48.449219 46.804688 C 48.371094 46.703125 48.296875 46.597656 48.21875 46.492188 C 47.566406 45.585938 46.917969 44.679688 46.277344 43.769531 C 45.402344 42.523438 44.511719 41.285156 43.617188 40.050781 C 43.34375 39.675781 43.074219 39.300781 42.804688 38.921875 C 42.710938 38.796875 42.621094 38.671875 42.527344 38.542969 C 42.355469 38.300781 42.183594 38.0625 42.007812 37.820312 C 41.929688 37.710938 41.851562 37.605469 41.769531 37.492188 C 41.703125 37.394531 41.632812 37.300781 41.5625 37.203125 C 41.34375 36.902344 41.121094 36.605469 40.898438 36.308594 C 40.378906 38.078125 39.925781 39.867188 39.488281 41.660156 C 39.457031 41.773438 39.429688 41.890625 39.402344 42.007812 C 39.195312 42.851562 38.988281 43.695312 38.785156 44.539062 C 38.574219 45.390625 38.367188 46.242188 38.160156 47.09375 C 38.074219 47.433594 37.992188 47.769531 37.910156 48.109375 C 37.859375 48.316406 37.8125 48.519531 37.761719 48.726562 C 37.714844 48.90625 37.671875 49.085938 37.628906 49.269531 C 37.515625 49.691406 37.515625 49.691406 37.359375 50 C 34.925781 50 32.492188 50 29.980469 50 C 31.367188 44.609375 32.761719 39.21875 34.160156 33.832031 C 34.328125 33.195312 34.492188 32.558594 34.660156 31.917969 C 34.855469 31.15625 35.054688 30.394531 35.253906 29.632812 C 35.328125 29.351562 35.402344 29.066406 35.472656 28.785156 C 35.574219 28.394531 35.675781 28.003906 35.777344 27.613281 C 35.808594 27.5 35.835938 27.386719 35.867188 27.273438 C 36.074219 26.476562 36.324219 25.699219 36.59375 24.921875 Z M 36.59375 24.921875" style="fill: black; fill-opacity: 1; stroke: none; fill-rule: nonzero;"></path>
    <path d="M 52.320312 7.328125 C 55.550781 10.152344 58.144531 13.246094 60.117188 17.078125 C 60.246094 17.328125 60.246094 17.328125 60.382812 17.582031 C 60.886719 18.558594 60.886719 18.558594 60.886719 18.921875 C 59.84375 18.980469 58.800781 19.023438 57.757812 19.050781 C 57.40625 19.0625 57.050781 19.078125 56.699219 19.097656 C 53.839844 19.253906 53.839844 19.253906 53.03125 18.707031 C 52.5 18.175781 52.140625 17.558594 51.804688 16.886719 C 51.625 16.546875 51.402344 16.261719 51.144531 15.972656 C 51.074219 15.890625 51.003906 15.808594 50.933594 15.726562 C 50.867188 15.648438 50.796875 15.570312 50.726562 15.492188 C 50.652344 15.402344 50.574219 15.3125 50.496094 15.222656 C 45.96875 10.074219 39.667969 6.910156 32.832031 6.367188 C 25.722656 5.917969 19.058594 8.425781 13.734375 13.105469 C 12.632812 14.09375 11.664062 15.128906 10.761719 16.308594 C 10.640625 16.457031 10.519531 16.601562 10.394531 16.753906 C 5.320312 23.058594 3.394531 31.5 4.144531 39.453125 C 4.464844 42.441406 5.082031 45.691406 6.5 48.371094 C 6.765625 48.921875 6.765625 48.921875 6.609375 49.382812 C 2.773438 44.902344 0.308594 38.480469 0.277344 32.570312 C 0.277344 32.433594 0.273438 32.300781 0.273438 32.160156 C 0.273438 31.875 0.269531 31.589844 0.269531 31.308594 C 0.269531 30.882812 0.265625 30.457031 0.257812 30.03125 C 0.246094 27.609375 0.519531 25.269531 1.183594 22.933594 C 1.222656 22.792969 1.261719 22.652344 1.300781 22.507812 C 2.730469 17.570312 5.378906 13.242188 8.917969 9.539062 C 9.050781 9.394531 9.1875 9.253906 9.324219 9.105469 C 14.246094 4.015625 20.914062 1.1875 27.828125 0.152344 C 27.933594 0.136719 28.039062 0.121094 28.148438 0.105469 C 36.6875 -1.015625 45.769531 1.804688 52.320312 7.328125 Z M 52.320312 7.328125" style="fill: black; fill-opacity: 1; stroke: none; fill-rule: nonzero;"></path>
    <path d="M 103.347656 24.90625 C 103.5 24.90625 103.652344 24.90625 103.808594 24.90625 C 104.304688 24.90625 104.800781 24.90625 105.300781 24.90625 C 105.644531 24.910156 105.992188 24.910156 106.339844 24.910156 C 107.246094 24.910156 108.15625 24.910156 109.066406 24.914062 C 109.992188 24.914062 110.921875 24.914062 111.851562 24.914062 C 113.671875 24.917969 115.492188 24.917969 117.3125 24.921875 C 117.214844 25.78125 117.070312 26.609375 116.875 27.453125 C 116.847656 27.570312 116.820312 27.6875 116.792969 27.808594 C 116.707031 28.179688 116.621094 28.550781 116.53125 28.921875 C 116.472656 29.175781 116.414062 29.429688 116.355469 29.683594 C 116.214844 30.300781 116.070312 30.921875 115.925781 31.539062 C 115.664062 31.539062 115.664062 31.539062 115.394531 31.542969 C 113.734375 31.550781 112.074219 31.5625 110.414062 31.574219 C 109.5625 31.582031 108.707031 31.585938 107.855469 31.589844 C 107.03125 31.597656 106.203125 31.601562 105.378906 31.609375 C 105.066406 31.613281 104.753906 31.613281 104.4375 31.613281 C 104 31.617188 103.558594 31.621094 103.117188 31.625 C 102.988281 31.625 102.859375 31.625 102.726562 31.625 C 100.964844 31.652344 99.230469 32.320312 97.9375 33.539062 C 97.734375 33.84375 97.53125 34.148438 97.324219 34.460938 C 103.058594 34.460938 108.789062 34.460938 114.699219 34.460938 C 114.429688 36.609375 113.730469 38.679688 113.160156 40.769531 C 107.425781 40.769531 101.691406 40.769531 95.785156 40.769531 C 96.140625 42.191406 96.140625 42.191406 97.015625 43.078125 C 97.542969 43.339844 98.148438 43.257812 98.726562 43.261719 C 98.875 43.265625 99.019531 43.265625 99.167969 43.265625 C 99.652344 43.273438 100.132812 43.277344 100.617188 43.28125 C 100.949219 43.28125 101.285156 43.285156 101.617188 43.289062 C 102.5 43.296875 103.378906 43.304688 104.257812 43.3125 C 105.15625 43.320312 106.054688 43.328125 106.949219 43.335938 C 108.714844 43.355469 110.476562 43.371094 112.238281 43.382812 C 112.082031 44.703125 112.082031 44.703125 111.941406 45.234375 C 111.902344 45.390625 111.902344 45.390625 111.859375 45.546875 C 111.832031 45.65625 111.800781 45.761719 111.769531 45.875 C 111.742188 45.988281 111.710938 46.101562 111.679688 46.21875 C 111.617188 46.457031 111.554688 46.695312 111.488281 46.933594 C 111.390625 47.300781 111.292969 47.667969 111.199219 48.035156 C 111.136719 48.265625 111.074219 48.496094 111.011719 48.730469 C 110.984375 48.839844 110.953125 48.949219 110.925781 49.0625 C 110.71875 49.828125 110.71875 49.828125 110.546875 50 C 110.335938 50.015625 110.125 50.023438 109.914062 50.023438 C 109.710938 50.027344 109.710938 50.027344 109.503906 50.027344 C 109.277344 50.027344 109.277344 50.027344 109.046875 50.03125 C 108.890625 50.03125 108.734375 50.03125 108.570312 50.035156 C 108.046875 50.039062 107.523438 50.039062 106.996094 50.042969 C 106.816406 50.042969 106.640625 50.042969 106.453125 50.042969 C 105.503906 50.046875 104.554688 50.050781 103.605469 50.054688 C 102.628906 50.054688 101.652344 50.0625 100.671875 50.070312 C 99.917969 50.078125 99.167969 50.078125 98.414062 50.078125 C 98.050781 50.078125 97.691406 50.082031 97.332031 50.085938 C 93.71875 50.121094 93.71875 50.121094 92.25 49.230469 C 92.085938 49.136719 91.917969 49.039062 91.75 48.941406 C 89.835938 47.519531 88.363281 45.789062 87.984375 43.359375 C 87.558594 38.46875 89.289062 34 92.316406 30.203125 C 95.234375 26.730469 98.808594 24.886719 103.347656 24.90625 Z M 103.347656 24.90625" style="fill: black; fill-opacity: 1; stroke: none; fill-rule: nonzero;"></path>
    <path d="M 24.890625 12.136719 C 24.996094 12.136719 25.097656 12.136719 25.207031 12.136719 C 25.546875 12.136719 25.886719 12.136719 26.226562 12.140625 C 26.464844 12.140625 26.699219 12.140625 26.9375 12.140625 C 27.558594 12.140625 28.179688 12.140625 28.800781 12.144531 C 29.4375 12.144531 30.070312 12.144531 30.707031 12.144531 C 31.949219 12.148438 33.195312 12.152344 34.441406 12.152344 C 34.199219 13.445312 33.894531 14.714844 33.582031 15.992188 C 33.523438 16.222656 33.46875 16.457031 33.410156 16.691406 C 33.253906 17.328125 33.101562 17.96875 32.945312 18.605469 C 32.84375 19.011719 32.746094 19.417969 32.644531 19.824219 C 31.199219 25.75 29.734375 31.671875 28.261719 37.59375 C 28.085938 38.300781 27.910156 39.007812 27.734375 39.71875 C 27.695312 39.886719 27.652344 40.058594 27.609375 40.234375 C 26.800781 43.484375 26.007812 46.742188 25.214844 50 C 21.308594 50 17.402344 50 13.375 50 C 14.089844 46.972656 14.089844 46.972656 14.472656 45.484375 C 14.511719 45.320312 14.511719 45.320312 14.554688 45.152344 C 14.585938 45.039062 14.613281 44.925781 14.644531 44.808594 C 14.707031 44.5625 14.769531 44.316406 14.832031 44.070312 C 15 43.414062 15.167969 42.757812 15.335938 42.101562 C 15.441406 41.691406 15.546875 41.277344 15.652344 40.867188 C 16.90625 35.976562 18.167969 31.09375 19.4375 26.207031 C 19.46875 26.078125 19.503906 25.953125 19.539062 25.820312 C 19.691406 25.222656 19.847656 24.621094 20.003906 24.023438 C 20.058594 23.8125 20.113281 23.601562 20.167969 23.390625 C 20.214844 23.210938 20.261719 23.03125 20.3125 22.84375 C 20.460938 22.253906 20.609375 21.667969 20.757812 21.078125 C 18.320312 21.027344 15.886719 20.976562 13.375 20.921875 C 13.375 20.820312 13.375 20.71875 13.375 20.617188 C 13.652344 20.371094 13.652344 20.371094 14.039062 20.078125 C 14.632812 19.613281 15.195312 19.136719 15.75 18.625 C 16.296875 18.121094 16.851562 17.640625 17.429688 17.171875 C 18.078125 16.652344 18.691406 16.105469 19.296875 15.539062 C 20.042969 14.839844 20.8125 14.175781 21.613281 13.535156 C 22.027344 13.199219 22.421875 12.84375 22.8125 12.476562 C 23.417969 12.070312 24.1875 12.136719 24.890625 12.136719 Z M 24.890625 12.136719" style="fill: black; fill-opacity: 1; stroke: none; fill-rule: nonzero;"></path>
    <path d="M 78.917969 24.878906 C 79.269531 24.878906 79.621094 24.878906 79.972656 24.878906 C 80.886719 24.882812 81.800781 24.886719 82.714844 24.890625 C 83.652344 24.894531 84.589844 24.898438 85.527344 24.902344 C 87.355469 24.90625 89.1875 24.914062 91.019531 24.921875 C 90.933594 25.832031 90.796875 26.699219 90.582031 27.585938 C 90.554688 27.703125 90.527344 27.816406 90.5 27.933594 C 90.414062 28.292969 90.328125 28.652344 90.242188 29.007812 C 90.183594 29.253906 90.125 29.5 90.066406 29.746094 C 89.921875 30.34375 89.78125 30.941406 89.636719 31.539062 C 89.457031 31.539062 89.277344 31.539062 89.09375 31.542969 C 87.394531 31.550781 85.699219 31.5625 84.003906 31.574219 C 83.128906 31.582031 82.257812 31.585938 81.386719 31.589844 C 80.542969 31.597656 79.703125 31.601562 78.859375 31.609375 C 78.539062 31.613281 78.21875 31.613281 77.898438 31.613281 C 77.445312 31.617188 76.996094 31.621094 76.546875 31.625 C 76.414062 31.625 76.285156 31.625 76.148438 31.625 C 74.488281 31.652344 72.921875 32.199219 71.675781 33.308594 C 69.921875 35.3125 69.199219 38.113281 69.292969 40.757812 C 69.382812 41.652344 69.476562 42.339844 70.183594 42.9375 C 70.828125 43.351562 71.464844 43.320312 72.210938 43.316406 C 72.433594 43.316406 72.433594 43.316406 72.660156 43.320312 C 73.144531 43.324219 73.625 43.324219 74.109375 43.324219 C 74.449219 43.328125 74.785156 43.328125 75.121094 43.332031 C 76.003906 43.339844 76.890625 43.34375 77.773438 43.34375 C 78.675781 43.347656 79.578125 43.355469 80.480469 43.359375 C 82.25 43.371094 84.023438 43.378906 85.792969 43.382812 C 85.402344 44.949219 85.007812 46.515625 84.601562 48.078125 C 84.550781 48.265625 84.503906 48.449219 84.453125 48.644531 C 84.335938 49.097656 84.21875 49.546875 84.101562 50 C 81.96875 50.019531 79.835938 50.03125 77.703125 50.039062 C 76.710938 50.042969 75.71875 50.050781 74.730469 50.058594 C 73.773438 50.066406 72.816406 50.070312 71.859375 50.074219 C 71.496094 50.074219 71.128906 50.078125 70.765625 50.082031 C 67.101562 50.121094 67.101562 50.121094 65.652344 49.230469 C 65.554688 49.175781 65.457031 49.117188 65.359375 49.058594 C 63.355469 47.777344 62.078125 46.035156 61.519531 43.722656 C 60.71875 39.367188 62.183594 34.695312 64.640625 31.097656 C 67.105469 27.683594 69.890625 25.773438 74.003906 25.074219 C 75.632812 24.824219 77.273438 24.867188 78.917969 24.878906 Z M 78.917969 24.878906" style="fill: black; fill-opacity: 1; stroke: none; fill-rule: nonzero;"></path>
  </g>
</svg>