<?xml version="1.0" encoding="UTF-8"?>
<svg height="50px" version="1.1" viewBox="0 0 189 50" width="189px" xmlns="http://www.w3.org/2000/svg">
  <g id="domo">
    <path d="M 0 0 C 26.789062 0 26.789062 0 34.707031 7.59375 C 37.625 10.640625 39.554688 14.28125 40.796875 18.300781 C 40.957031 17.917969 41.113281 17.535156 41.277344 17.140625 C 44.234375 10.132812 48.582031 4.761719 55.765625 1.769531 C 61.894531 -0.625 68.929688 -0.660156 75.035156 1.894531 C 81.601562 4.855469 85.863281 9.816406 88.777344 16.339844 C 88.886719 16.664062 88.992188 16.988281 89.105469 17.320312 C 89.210938 11.605469 89.320312 5.890625 89.429688 0 C 92 2.207031 92 2.207031 92.832031 3.039062 C 93.023438 3.230469 93.210938 3.417969 93.410156 3.613281 C 93.605469 3.816406 93.804688 4.015625 94.011719 4.222656 C 94.335938 4.546875 94.335938 4.546875 94.667969 4.882812 C 95.378906 5.589844 96.085938 6.300781 96.792969 7.011719 C 97.289062 7.507812 97.78125 8.003906 98.277344 8.5 C 99.570312 9.796875 100.867188 11.097656 102.160156 12.398438 C 103.484375 13.726562 104.808594 15.050781 106.132812 16.378906 C 108.726562 18.980469 111.316406 21.582031 113.910156 24.183594 C 115.03125 23.699219 115.753906 23.066406 116.609375 22.203125 C 116.882812 21.925781 117.15625 21.652344 117.4375 21.371094 C 117.875 20.925781 117.875 20.925781 118.320312 20.472656 C 118.785156 20.003906 119.25 19.539062 119.710938 19.070312 C 120.363281 18.417969 121.011719 17.761719 121.660156 17.101562 C 122.941406 15.804688 124.226562 14.507812 125.515625 13.210938 C 125.960938 12.761719 126.402344 12.3125 126.847656 11.863281 C 128.28125 10.414062 129.738281 9.023438 131.28125 7.695312 C 132.121094 6.964844 132.894531 6.1875 133.675781 5.394531 C 133.832031 5.238281 133.984375 5.082031 134.144531 4.917969 C 134.628906 4.429688 135.109375 3.941406 135.59375 3.453125 C 136.238281 2.796875 136.882812 2.144531 137.53125 1.492188 C 137.8125 1.203125 138.09375 0.917969 138.386719 0.625 C 139.042969 0 139.042969 0 139.367188 0 C 139.476562 5.5 139.582031 11 139.695312 16.667969 C 140.554688 14.941406 141.417969 13.214844 142.304688 11.4375 C 143.050781 10.359375 143.722656 9.453125 144.589844 8.496094 C 144.828125 8.230469 145.066406 7.960938 145.308594 7.6875 C 150.011719 2.667969 156.300781 0.285156 163.050781 0.0117188 C 169.996094 -0.128906 176.304688 2.636719 181.308594 7.351562 C 185.640625 11.6875 188.152344 17.585938 188.179688 23.683594 C 188.171875 24.113281 188.167969 24.539062 188.164062 24.980469 C 188.167969 25.40625 188.171875 25.832031 188.179688 26.269531 C 188.152344 32.617188 185.792969 38.140625 181.359375 42.617188 C 181.074219 42.898438 180.789062 43.175781 180.492188 43.464844 C 180.148438 43.800781 180.148438 43.800781 179.796875 44.144531 C 174.691406 48.875 168.210938 50.226562 161.476562 50.097656 C 156.042969 49.882812 150.578125 47.441406 146.546875 43.789062 C 146.332031 43.605469 146.117188 43.417969 145.894531 43.226562 C 144.492188 41.933594 143.421875 40.503906 142.386719 38.910156 C 142.207031 38.636719 142.207031 38.636719 142.027344 38.355469 C 141.070312 36.820312 140.445312 35.351562 139.695312 33.660156 C 139.585938 39.050781 139.480469 44.445312 139.367188 50 C 136.460938 50 133.550781 50 130.554688 50 C 130.394531 35.765625 130.394531 35.765625 130.230469 21.242188 C 125.058594 26.417969 119.890625 31.59375 114.5625 36.929688 C 113.320312 36.304688 112.695312 35.789062 111.730469 34.820312 C 111.582031 34.671875 111.433594 34.523438 111.28125 34.367188 C 110.800781 33.886719 110.320312 33.40625 109.84375 32.921875 C 109.550781 32.628906 109.257812 32.332031 108.957031 32.027344 C 107.859375 30.925781 106.761719 29.820312 105.667969 28.71875 C 103.21875 26.25 100.765625 23.785156 98.242188 21.242188 C 98.136719 30.730469 98.027344 40.222656 97.917969 50 C 95.117188 50 92.316406 50 89.429688 50 C 89.324219 44.285156 89.214844 38.570312 89.105469 32.679688 C 88.566406 33.972656 88.027344 35.269531 87.472656 36.601562 C 84.070312 42.949219 78.742188 47.183594 71.949219 49.363281 C 65.019531 51.269531 57.972656 49.914062 51.820312 46.429688 C 50.417969 45.578125 49.1875 44.566406 47.980469 43.464844 C 47.78125 43.296875 47.582031 43.125 47.378906 42.953125 C 44.503906 40.34375 42.667969 36.773438 41.410156 33.152344 C 41.199219 32.382812 41.199219 32.382812 40.796875 32.027344 C 40.6875 32.335938 40.578125 32.644531 40.460938 32.960938 C 39.382812 35.859375 38.101562 38.363281 36.230469 40.851562 C 36.050781 41.085938 35.875 41.324219 35.691406 41.570312 C 31.730469 46.46875 26.179688 48.511719 20.234375 50 C 13.558594 50 6.878906 50 0 50 C 0 33.5 0 17 0 0 Z M 8.484375 8.824219 C 8.484375 19.609375 8.484375 30.390625 8.484375 41.503906 C 19.535156 41.800781 19.535156 41.800781 28.375 36.6875 C 31.65625 33.09375 33.109375 28.851562 33.054688 24.042969 C 32.714844 19.59375 30.742188 15.734375 27.511719 12.695312 C 21.730469 8.023438 16.128906 8.824219 8.484375 8.824219 Z M 52.875 14.050781 C 49.40625 18.441406 48.488281 22.632812 48.957031 28.105469 C 49.140625 29.289062 49.441406 30.285156 49.9375 31.371094 C 50.128906 31.808594 50.128906 31.808594 50.324219 32.25 C 52.316406 36.320312 55.722656 39.300781 59.996094 40.789062 C 64.40625 42.15625 68.929688 41.738281 73.03125 39.625 C 77.355469 37.082031 79.804688 33.542969 81.269531 28.757812 C 82.117188 24.496094 81.464844 20.300781 79.242188 16.546875 C 76.695312 12.789062 73.460938 10.253906 69.0625 9.039062 C 63.105469 7.949219 57.050781 9.460938 52.875 14.050781 Z M 150.464844 14.808594 C 147.65625 18.511719 146.550781 22.765625 147.027344 27.363281 C 147.746094 31.777344 149.960938 35.394531 153.402344 38.234375 C 157.414062 41.070312 161.628906 42.085938 166.492188 41.351562 C 171.078125 40.351562 174.761719 37.820312 177.359375 33.925781 C 178.652344 31.652344 179.6875 29.105469 179.839844 26.46875 C 179.855469 26.257812 179.875 26.046875 179.890625 25.828125 C 180.09375 21.328125 178.390625 17.359375 175.535156 13.96875 C 172.429688 10.699219 168.585938 8.863281 164.070312 8.667969 C 158.582031 8.597656 154.078125 10.664062 150.464844 14.808594 Z M 150.464844 14.808594" style="stroke: none; fill-rule: nonzero; fill: rgb(0, 0, 0); fill-opacity: 1;"/>
  </g>
</svg>