<?xml version="1.0" encoding="UTF-8"?>
<svg height="50px" version="1.1" viewBox="0 0 140 50" width="140px" xmlns="http://www.w3.org/2000/svg">
  <g id="flespi">
    <path d="M 45.148438 22.355469 L 42.652344 22.355469 L 42.652344 19.464844 L 45.148438 19.464844 L 45.148438 18.300781 C 45.148438 12.644531 48.550781 10.832031 52.171875 10.832031 C 52.902344 10.832031 53.589844 10.917969 53.589844 10.917969 L 53.589844 13.898438 C 53.589844 13.898438 53.03125 13.808594 52.515625 13.808594 C 49.972656 13.808594 48.59375 15.191406 48.59375 18.300781 L 48.59375 19.464844 L 53.375 19.464844 L 53.375 22.355469 L 48.59375 22.355469 L 48.59375 41.910156 L 45.148438 41.910156 Z M 45.148438 22.355469" style="stroke: none; fill-rule: nonzero; fill: rgb(0%, 0%, 0%); fill-opacity: 1;"/>
    <path d="M 57.125 10.703125 L 60.527344 10.703125 L 60.527344 41.910156 L 57.125 41.910156 Z M 57.125 10.703125" style="stroke: none; fill-rule: nonzero; fill: rgb(0%, 0%, 0%); fill-opacity: 1;"/>
    <path d="M 74.871094 18.902344 C 81.460938 18.902344 85.511719 23.652344 85.511719 30.386719 C 85.511719 30.515625 85.511719 30.992188 85.464844 31.421875 L 67.503906 31.421875 C 67.546875 36.429688 70.90625 39.453125 75.558594 39.453125 C 79.351562 39.453125 81.460938 37.464844 82.539062 35.953125 L 84.777344 37.59375 C 83.527344 39.710938 80.597656 42.472656 75.515625 42.472656 C 68.710938 42.472656 64.015625 37.679688 64.015625 30.773438 C 64.015625 23.609375 68.925781 18.902344 74.871094 18.902344 Z M 82.019531 28.875 C 81.804688 24.214844 78.574219 21.839844 74.871094 21.839844 C 71.210938 21.839844 67.9375 24.644531 67.675781 28.875 Z M 82.019531 28.875" style="stroke: none; fill-rule: nonzero; fill: rgb(0%, 0%, 0%); fill-opacity: 1;"/>
    <path d="M 90.507812 36.128906 C 91.453125 37.898438 93.046875 39.582031 96.105469 39.582031 C 98.347656 39.582031 100.242188 38.285156 100.242188 35.996094 C 100.242188 30.816406 89 32.585938 89 24.992188 C 89 21.191406 92.144531 18.902344 96.191406 18.902344 C 100.371094 18.902344 102.523438 21.535156 103.128906 23.21875 L 100.628906 24.644531 C 100.027344 23.4375 98.863281 21.753906 95.976562 21.753906 C 93.910156 21.753906 92.273438 22.917969 92.273438 24.859375 C 92.273438 29.910156 103.558594 28.011719 103.558594 35.824219 C 103.558594 39.796875 100.285156 42.472656 95.933594 42.472656 C 91.238281 42.472656 89.128906 39.796875 88.136719 37.679688 Z M 90.507812 36.128906" style="stroke: none; fill-rule: nonzero; fill: rgb(0%, 0%, 0%); fill-opacity: 1;"/>
    <path d="M 107.261719 19.464844 L 110.535156 19.464844 L 110.535156 23.003906 C 111.097656 22.183594 113.464844 18.902344 118.332031 18.902344 C 124.707031 18.902344 129.273438 23.78125 129.273438 30.644531 C 129.273438 37.59375 124.921875 42.472656 118.589844 42.472656 C 113.894531 42.472656 111.355469 39.453125 110.664062 38.285156 L 110.664062 49.984375 L 107.261719 49.984375 Z M 118.203125 39.363281 C 122.597656 39.363281 125.785156 35.78125 125.785156 30.644531 C 125.785156 25.378906 122.425781 22.011719 118.117188 22.011719 C 113.464844 22.011719 110.535156 25.941406 110.535156 30.644531 C 110.535156 36.171875 113.984375 39.363281 118.203125 39.363281 Z M 118.203125 39.363281" style="stroke: none; fill-rule: nonzero; fill: rgb(0%, 0%, 0%); fill-opacity: 1;"/>
    <path d="M 135.347656 11.351562 C 136.683594 11.351562 137.714844 12.386719 137.714844 13.679688 C 137.714844 15.019531 136.683594 16.054688 135.347656 16.054688 C 134.054688 16.054688 133.023438 15.019531 133.023438 13.679688 C 133.023438 12.386719 134.054688 11.351562 135.347656 11.351562 Z M 133.667969 19.464844 L 137.070312 19.464844 L 137.070312 41.910156 L 133.667969 41.910156 Z M 133.667969 19.464844" style="stroke: none; fill-rule: nonzero; fill: rgb(0%, 0%, 0%); fill-opacity: 1;"/>
    <path d="M 6.597656 40.644531 C 10.832031 28.042969 22.335938 19.957031 34.851562 19.476562 C 33.34375 18.464844 31.695312 17.613281 29.890625 17.007812 C 18.953125 13.3125 7.101562 19.203125 3.414062 30.164062 C 1.417969 36.097656 2.246094 42.289062 5.144531 47.316406 C 5.378906 45.089844 5.851562 42.855469 6.597656 40.644531 Z M 6.597656 40.644531" style="stroke: none; fill-rule: nonzero; fill: rgb(0%, 0%, 0%); fill-opacity: 1;"/>
    <path d="M 4.347656 39.507812 C 5.148438 26.9375 15.96875 17.394531 28.511719 18.195312 C 30.691406 18.335938 32.777344 18.785156 34.738281 19.484375 C 34.777344 19.484375 34.8125 19.480469 34.851562 19.476562 C 33.34375 18.464844 31.695312 17.613281 29.890625 17.007812 C 18.953125 13.3125 7.101562 19.203125 3.414062 30.164062 C 1.417969 36.097656 2.246094 42.289062 5.144531 47.316406 C 5.148438 47.269531 5.15625 47.222656 5.164062 47.171875 C 4.476562 44.746094 4.179688 42.167969 4.347656 39.507812 Z M 4.347656 39.507812" style="stroke: none; fill-rule: nonzero; fill: rgb(0%, 0%, 0%); fill-opacity: 1;"/>
  </g>
</svg>