<?xml version="1.0" encoding="UTF-8"?>
<svg height="50px" version="1.1" viewBox="0 0 280 50" width="280px" xmlns="http://www.w3.org/2000/svg">
  <g id="gurtam">
    <path d="M 32.84375 3.28125 L 18.816406 17.292969 L 32.855469 31.289062 L 46.882812 17.28125 Z M 32.84375 3.28125" style="stroke: none; fill-rule: nonzero; fill: rgb(0%, 0%, 0%); fill-opacity: 1;"></path>
    <path d="M 67.007812 -0.0546875 L 49.625 17.269531 L 63.652344 31.277344 L 81.035156 13.953125 Z M 67.007812 -0.0546875" style="stroke: none; fill-rule: nonzero; fill: rgb(0%, 0%, 0%); fill-opacity: 1;"></path>
    <path d="M 17.457031 18.644531 L 0.0742188 35.96875 L 14.101562 49.976562 L 31.484375 32.652344 Z M 17.457031 18.644531" style="stroke: none; fill-rule: nonzero; fill: rgb(0%, 0%, 0%); fill-opacity: 1;"></path>
    <path d="M 48.265625 18.644531 L 34.226562 32.640625 L 48.253906 46.648438 L 62.292969 32.652344 Z M 48.265625 18.644531" style="stroke: none; fill-rule: nonzero; fill: rgb(0%, 0%, 0%); fill-opacity: 1;"></path>
    <path d="M 215.476562 14.007812 L 201.300781 42.546875 L 210.957031 42.546875 L 214.371094 35.675781 L 226.246094 35.675781 L 228.445312 42.546875 L 238.101562 42.546875 L 228.976562 14.007812 Z M 217.398438 29.589844 L 221.597656 21.132812 L 224.300781 29.589844 Z M 217.398438 29.589844" style="stroke: none; fill-rule: nonzero; fill: rgb(0%, 0%, 0%); fill-opacity: 1;"></path>
    <path d="M 265.484375 14.007812 L 259.855469 31.570312 L 256.449219 14.007812 L 241.988281 14.007812 L 240.3125 42.546875 L 249.375 42.546875 L 250.582031 22.046875 L 254.640625 42.546875 L 263.8125 42.546875 L 270.421875 22.039062 L 269.214844 42.546875 L 278.28125 42.546875 L 279.953125 14.007812 Z M 265.484375 14.007812" style="stroke: none; fill-rule: nonzero; fill: rgb(0%, 0%, 0%); fill-opacity: 1;"></path>
    <path d="M 101.359375 32.046875 L 105.175781 32.046875 L 104.894531 36.457031 C 104.882812 36.632812 104.0625 36.808594 103.945312 36.839844 C 100.53125 37.578125 96.152344 36.941406 94.195312 33.726562 C 91.957031 29.625 93.777344 23.285156 98.132812 21.355469 C 102.367188 19.335938 108.140625 20.082031 112.386719 21.175781 L 112.796875 14.613281 C 106.8125 13.429688 100.234375 12.683594 94.390625 14.847656 C 88.703125 16.941406 84.726562 22.027344 84.261719 28.089844 C 83.984375 31.746094 84.90625 35.738281 87.378906 38.527344 C 90.882812 42.425781 96.386719 43.042969 101.359375 43.128906 C 105.144531 43.101562 109.257812 42.722656 112.96875 42.003906 L 113.90625 25.957031 L 101.738281 25.957031 L 101.355469 32.050781 Z M 101.359375 32.046875" style="stroke: none; fill-rule: nonzero; fill: rgb(0%, 0%, 0%); fill-opacity: 1;"></path>
    <path d="M 207.277344 14.007812 L 180.921875 14.007812 L 180.566406 20.097656 L 189.15625 20.097656 L 187.84375 42.546875 L 196.902344 42.546875 L 198.21875 20.097656 L 206.898438 20.097656 L 207.28125 14.007812 Z M 207.277344 14.007812" style="stroke: none; fill-rule: nonzero; fill: rgb(0%, 0%, 0%); fill-opacity: 1;"></path>
    <path d="M 128.085938 14.007812 L 119.023438 14.007812 C 119.023438 14.007812 117.953125 32.210938 117.851562 33.953125 C 117.757812 35.640625 118.265625 37.402344 119.199219 38.714844 C 120.234375 40.132812 121.941406 41.121094 123.726562 41.832031 C 125.847656 42.664062 128.277344 43.015625 130.613281 43.113281 C 134.351562 43.21875 138.378906 42.914062 141.703125 41.210938 C 144.230469 39.875 145.695312 38.339844 146.390625 35.71875 C 146.558594 35.050781 146.695312 34.066406 146.789062 32.851562 L 147.894531 14.003906 L 138.828125 14.003906 L 137.824219 31.085938 C 137.589844 35.164062 134.707031 37 132.328125 37 C 129.945312 37 126.859375 34.527344 127.109375 30.660156 L 128.085938 14.003906 Z M 128.085938 14.007812" style="stroke: none; fill-rule: nonzero; fill: rgb(0%, 0%, 0%); fill-opacity: 1;"></path>
    <path d="M 169.257812 14.007812 C 172.972656 14.007812 178.464844 16.210938 178.464844 21.53125 C 178.464844 26.851562 175.613281 29.335938 171.746094 30.484375 L 178.128906 42.550781 L 169.066406 42.550781 L 160.660156 26.5625 L 166.347656 26.5625 C 168.179688 26.5625 169.632812 25.214844 169.632812 23.398438 C 169.632812 21.582031 168.144531 20.109375 166.3125 20.109375 L 161.039062 20.109375 L 159.722656 42.558594 L 150.65625 42.558594 L 152.332031 14.019531 L 169.257812 14.019531 Z M 169.257812 14.007812" style="stroke: none; fill-rule: nonzero; fill: rgb(0%, 0%, 0%); fill-opacity: 1;"></path>
  </g>
</svg>