<?xml version="1.0" encoding="UTF-8"?>
<svg
  height="50px"
  version="1.1"
  viewBox="0 0 188 50"
  width="188px"
  xmlns="http://www.w3.org/2000/svg"
  xmlns:xlink="http://www.w3.org/1999/xlink"
>
  <g id="looker">
    <path
      d="M 22.914062 20.808594 C 22.957031 20.832031 23 20.855469 23.046875 20.878906 C 26.570312 22.773438 29.222656 26.144531 30.382812 29.964844 C 30.625 30.800781 30.804688 31.640625 30.917969 32.5 C 30.929688 32.59375 30.945312 32.6875 30.957031 32.785156 C 31.015625 33.34375 31.007812 33.90625 31.007812 34.46875 C 31.007812 34.527344 31.007812 34.589844 31.007812 34.652344 C 31.007812 35.59375 30.964844 36.5 30.769531 37.425781 C 30.757812 37.488281 30.746094 37.550781 30.734375 37.613281 C 29.96875 41.410156 27.75 44.875 24.601562 47.132812 C 24.5625 47.160156 24.523438 47.191406 24.480469 47.21875 C 22.703125 48.503906 20.648438 49.339844 18.507812 49.78125 C 18.453125 49.792969 18.398438 49.804688 18.34375 49.816406 C 16.375 50.234375 14.066406 50.160156 12.117188 49.707031 C 12.050781 49.691406 11.980469 49.675781 11.910156 49.660156 C 8.046875 48.765625 4.550781 46.304688 2.414062 42.957031 C 1 40.679688 0.0117188 38.019531 -0.015625 35.3125 C -0.0195312 35.253906 -0.0195312 35.195312 -0.0195312 35.132812 C -0.03125 33.785156 -0.0078125 32.496094 0.292969 31.175781 C 0.308594 31.113281 0.320312 31.050781 0.335938 30.988281 C 0.917969 28.402344 2.160156 26.019531 3.953125 24.070312 C 4.109375 23.898438 4.261719 23.726562 4.410156 23.550781 C 4.683594 23.246094 4.972656 22.980469 5.289062 22.71875 C 5.324219 22.691406 5.359375 22.660156 5.398438 22.625 C 7.898438 20.515625 7.898438 20.515625 8.738281 20.515625 C 8.757812 20.558594 8.773438 20.601562 8.792969 20.644531 C 8.976562 21.097656 9.160156 21.550781 9.347656 22.003906 C 9.414062 22.175781 9.484375 22.34375 9.550781 22.511719 C 9.652344 22.753906 9.75 23 9.851562 23.242188 C 9.882812 23.316406 9.910156 23.390625 9.941406 23.46875 C 9.988281 23.578125 9.988281 23.578125 10.03125 23.6875 C 10.058594 23.757812 10.089844 23.828125 10.117188 23.898438 C 10.179688 24.054688 10.246094 24.203125 10.3125 24.355469 C 10.367188 24.472656 10.367188 24.472656 10.417969 24.589844 C 10.449219 24.660156 10.480469 24.730469 10.515625 24.800781 C 10.582031 25.027344 10.582031 25.144531 10.5 25.367188 C 10.328125 25.496094 10.160156 25.597656 9.972656 25.703125 C 9.355469 26.070312 8.824219 26.496094 8.296875 26.984375 C 8.214844 27.0625 8.214844 27.0625 8.128906 27.136719 C 6.292969 28.886719 5.21875 31.519531 5.121094 34.035156 C 5.054688 36.882812 6.007812 39.582031 7.980469 41.664062 C 8.085938 41.769531 8.191406 41.878906 8.296875 41.984375 C 8.386719 42.074219 8.386719 42.074219 8.476562 42.164062 C 10.402344 43.992188 13.121094 44.914062 15.746094 44.867188 C 17.832031 44.792969 19.917969 44.132812 21.589844 42.867188 C 21.65625 42.820312 21.71875 42.769531 21.785156 42.71875 C 23.679688 41.230469 24.949219 39.242188 25.554688 36.910156 C 25.578125 36.828125 25.601562 36.742188 25.625 36.65625 C 26.195312 34.027344 25.65625 31.160156 24.21875 28.902344 C 23.832031 28.320312 23.394531 27.785156 22.914062 27.28125 C 22.859375 27.21875 22.804688 27.160156 22.746094 27.097656 C 21.027344 25.289062 18.488281 24.230469 16.007812 24.117188 C 15.925781 24.113281 15.839844 24.109375 15.753906 24.105469 C 15.09375 24.089844 14.46875 24.15625 13.820312 24.257812 C 13.757812 24.269531 13.695312 24.28125 13.632812 24.289062 C 13.550781 24.304688 13.550781 24.304688 13.464844 24.316406 C 13.257812 24.34375 13.058594 24.339844 12.851562 24.339844 C 12.558594 23.636719 12.265625 22.929688 11.972656 22.226562 C 11.855469 21.941406 11.734375 21.65625 11.617188 21.375 C 11.5 21.097656 11.386719 20.820312 11.273438 20.542969 C 11.238281 20.460938 11.203125 20.375 11.167969 20.289062 C 11.136719 20.214844 11.105469 20.140625 11.074219 20.0625 C 11.046875 19.996094 11.019531 19.929688 10.992188 19.863281 C 10.941406 19.707031 10.941406 19.707031 11.015625 19.558594 C 11.140625 19.511719 11.140625 19.511719 11.304688 19.472656 C 11.363281 19.457031 11.425781 19.441406 11.488281 19.425781 C 15.386719 18.527344 19.363281 18.886719 22.914062 20.808594 Z M 22.914062 20.808594 "
      style="
        stroke: none;
        fill-rule: nonzero;
        fill: rgb(0);
        fill-opacity: 1;
      "
    ></path>
    <path
      d="M 123.742188 6.398438 C 125.21875 6.398438 126.699219 6.398438 128.222656 6.398438 C 128.246094 14.039062 128.269531 21.683594 128.296875 29.558594 C 130.4375 27.472656 130.4375 27.472656 132.480469 25.292969 C 132.621094 25.148438 132.757812 25.007812 132.902344 24.867188 C 132.941406 24.828125 132.980469 24.789062 133.019531 24.75 C 133.101562 24.664062 133.183594 24.582031 133.269531 24.5 C 133.398438 24.371094 133.53125 24.238281 133.664062 24.109375 C 133.988281 23.78125 134.316406 23.457031 134.644531 23.128906 C 134.917969 22.855469 135.195312 22.578125 135.472656 22.304688 C 135.601562 22.175781 135.730469 22.046875 135.859375 21.917969 C 136.367188 21.410156 136.851562 20.898438 137.292969 20.332031 C 137.777344 19.710938 138.28125 19.113281 138.8125 18.53125 C 138.878906 18.457031 138.878906 18.457031 138.945312 18.382812 C 140.113281 17.101562 141.160156 16.273438 142.933594 16.183594 C 144.222656 16.144531 145.527344 16.273438 146.800781 16.46875 C 146.746094 16.800781 146.671875 16.925781 146.425781 17.15625 C 146.21875 17.347656 146.023438 17.546875 145.839844 17.761719 C 145.527344 18.121094 145.195312 18.457031 144.855469 18.792969 C 144.75 18.898438 144.648438 19.003906 144.542969 19.105469 C 144.429688 19.21875 144.320312 19.328125 144.207031 19.441406 C 143.976562 19.671875 143.742188 19.90625 143.511719 20.136719 C 142.976562 20.671875 142.4375 21.207031 141.902344 21.742188 C 141.410156 22.234375 140.917969 22.726562 140.425781 23.214844 C 140.195312 23.449219 139.964844 23.679688 139.734375 23.910156 C 139.625 24.015625 139.515625 24.125 139.40625 24.234375 C 139.273438 24.367188 139.140625 24.5 139.007812 24.632812 C 138.695312 24.949219 138.390625 25.265625 138.101562 25.605469 C 137.902344 25.835938 137.6875 26.046875 137.472656 26.257812 C 137.425781 26.304688 137.378906 26.351562 137.332031 26.398438 C 137.183594 26.546875 137.039062 26.691406 136.890625 26.839844 C 136.792969 26.9375 136.691406 27.039062 136.589844 27.136719 C 136.347656 27.382812 136.101562 27.625 135.859375 27.867188 C 136.175781 28.367188 136.496094 28.863281 136.832031 29.351562 C 136.875 29.410156 136.914062 29.472656 136.957031 29.535156 C 137.082031 29.714844 137.203125 29.894531 137.328125 30.074219 C 137.398438 30.175781 137.46875 30.28125 137.539062 30.382812 C 137.707031 30.625 137.871094 30.867188 138.039062 31.105469 C 138.238281 31.398438 138.441406 31.691406 138.640625 31.984375 C 138.808594 32.226562 138.972656 32.46875 139.140625 32.710938 C 139.542969 33.300781 139.949219 33.890625 140.351562 34.480469 C 140.703125 35 141.058594 35.515625 141.414062 36.03125 C 141.582031 36.277344 141.75 36.519531 141.917969 36.765625 C 141.984375 36.863281 142.050781 36.960938 142.121094 37.058594 C 142.253906 37.253906 142.390625 37.449219 142.523438 37.648438 C 142.558594 37.695312 142.589844 37.742188 142.625 37.792969 C 142.691406 37.890625 142.757812 37.992188 142.828125 38.089844 C 142.992188 38.332031 143.160156 38.574219 143.328125 38.816406 C 143.730469 39.402344 144.132812 39.992188 144.535156 40.582031 C 144.761719 40.914062 144.988281 41.246094 145.21875 41.574219 C 145.347656 41.765625 145.476562 41.957031 145.609375 42.144531 C 145.699219 42.277344 145.789062 42.40625 145.878906 42.539062 C 145.933594 42.617188 145.988281 42.695312 146.042969 42.777344 C 146.113281 42.878906 146.113281 42.878906 146.1875 42.980469 C 146.289062 43.160156 146.289062 43.160156 146.289062 43.457031 C 145.609375 43.476562 144.929688 43.488281 144.25 43.496094 C 143.933594 43.503906 143.617188 43.507812 143.304688 43.515625 C 143 43.527344 142.695312 43.53125 142.390625 43.53125 C 142.273438 43.535156 142.15625 43.535156 142.042969 43.542969 C 141.140625 43.574219 141.140625 43.574219 140.8125 43.296875 C 140.65625 43.085938 140.535156 42.875 140.414062 42.648438 C 140.332031 42.523438 140.25 42.402344 140.164062 42.28125 C 140.085938 42.15625 140.003906 42.035156 139.921875 41.910156 C 139.878906 41.84375 139.835938 41.773438 139.789062 41.707031 C 139.648438 41.492188 139.511719 41.28125 139.371094 41.066406 C 138.738281 40.101562 138.101562 39.140625 137.445312 38.1875 C 137.074219 37.644531 136.707031 37.09375 136.335938 36.546875 C 136.269531 36.449219 136.269531 36.449219 136.199219 36.347656 C 135.375 35.125 134.5625 33.894531 133.757812 32.660156 C 133.714844 32.59375 133.671875 32.527344 133.625 32.460938 C 133.546875 32.339844 133.46875 32.21875 133.390625 32.097656 C 133.148438 31.730469 132.894531 31.378906 132.628906 31.03125 C 131.871094 31.539062 131.15625 32.09375 130.464844 32.691406 C 130.414062 32.738281 130.363281 32.78125 130.3125 32.828125 C 128.902344 34.070312 128.140625 35.28125 128.007812 37.179688 C 127.960938 38.015625 127.960938 38.847656 127.988281 39.683594 C 127.992188 39.824219 127.992188 39.824219 127.996094 39.964844 C 128.035156 41.132812 128.125 42.289062 128.222656 43.457031 C 126.742188 43.457031 125.265625 43.457031 123.742188 43.457031 C 123.742188 31.226562 123.742188 18.996094 123.742188 6.398438 Z M 123.742188 6.398438 "
      style="
        stroke: none;
        fill-rule: nonzero;
        fill: rgb(0);
        fill-opacity: 1;
      "
    ></path>
    <path
      d="M 165.957031 19.082031 C 168.402344 21.191406 169.765625 24.171875 170.15625 27.351562 C 170.160156 27.40625 170.167969 27.460938 170.175781 27.515625 C 170.238281 28.0625 170.238281 28.613281 170.238281 29.164062 C 170.238281 29.257812 170.238281 29.351562 170.238281 29.445312 C 170.238281 29.582031 170.238281 29.582031 170.238281 29.722656 C 170.238281 29.804688 170.238281 29.886719 170.238281 29.96875 C 170.226562 30.25 170.191406 30.53125 170.15625 30.808594 C 163.515625 30.808594 156.875 30.808594 150.03125 30.808594 C 150.390625 33.136719 150.789062 34.960938 152.308594 36.765625 C 152.34375 36.808594 152.375 36.851562 152.410156 36.894531 C 153.566406 38.394531 155.6875 39.234375 157.488281 39.503906 C 159.785156 39.773438 161.9375 39.207031 163.765625 37.792969 C 164.703125 37.042969 165.371094 36.105469 165.96875 35.074219 C 166.414062 35.109375 166.757812 35.308594 167.148438 35.511719 C 167.585938 35.734375 168.023438 35.957031 168.472656 36.164062 C 168.542969 36.195312 168.613281 36.226562 168.6875 36.261719 C 168.820312 36.324219 168.957031 36.382812 169.09375 36.445312 C 169.15625 36.472656 169.214844 36.5 169.28125 36.53125 C 169.332031 36.554688 169.386719 36.578125 169.441406 36.601562 C 169.566406 36.691406 169.566406 36.691406 169.628906 36.832031 C 169.648438 37.09375 169.492188 37.289062 169.355469 37.5 C 169.324219 37.550781 169.296875 37.597656 169.265625 37.648438 C 168.785156 38.410156 168.234375 39.09375 167.617188 39.742188 C 167.546875 39.816406 167.476562 39.890625 167.40625 39.964844 C 165.460938 42.046875 162.632812 43.328125 159.777344 43.464844 C 159.605469 43.46875 159.429688 43.46875 159.257812 43.472656 C 159.191406 43.472656 159.128906 43.472656 159.0625 43.472656 C 158.925781 43.472656 158.792969 43.472656 158.65625 43.472656 C 158.453125 43.472656 158.25 43.476562 158.050781 43.480469 C 156.917969 43.484375 155.804688 43.382812 154.722656 43.03125 C 154.664062 43.015625 154.601562 42.996094 154.539062 42.976562 C 152.703125 42.386719 151.140625 41.476562 149.738281 40.148438 C 149.636719 40.050781 149.636719 40.050781 149.527344 39.949219 C 148.601562 39.070312 147.898438 38.046875 147.316406 36.910156 C 147.289062 36.863281 147.265625 36.8125 147.238281 36.761719 C 146.324219 34.976562 145.769531 32.945312 145.757812 30.933594 C 145.757812 30.867188 145.757812 30.804688 145.757812 30.738281 C 145.742188 28.128906 145.742188 28.128906 145.992188 26.984375 C 146.007812 26.917969 146.019531 26.851562 146.035156 26.78125 C 146.5625 24.257812 147.675781 21.882812 149.492188 20.03125 C 149.585938 19.933594 149.675781 19.835938 149.769531 19.734375 C 151.246094 18.175781 153.308594 17.140625 155.394531 16.691406 C 155.464844 16.675781 155.464844 16.675781 155.535156 16.65625 C 159.085938 15.859375 163.15625 16.765625 165.957031 19.082031 Z M 152.402344 22.855469 C 151.4375 23.980469 150.328125 25.746094 150.328125 27.28125 C 155.390625 27.28125 160.457031 27.28125 165.675781 27.28125 C 165.625 26.699219 165.582031 26.203125 165.421875 25.65625 C 165.402344 25.589844 165.382812 25.527344 165.367188 25.457031 C 165.058594 24.457031 164.558594 23.488281 163.839844 22.71875 C 163.78125 22.660156 163.722656 22.597656 163.664062 22.53125 C 162.285156 21.089844 160.46875 20.417969 158.5 20.351562 C 156.070312 20.300781 154.082031 21.078125 152.402344 22.855469 Z M 152.402344 22.855469 "
      style="
        stroke: none;
        fill-rule: nonzero;
        fill: rgb(0);
        fill-opacity: 1;
      "
    ></path>
    <path
      d="M 116.167969 19.511719 C 116.347656 19.671875 116.519531 19.835938 116.691406 20 C 116.789062 20.09375 116.789062 20.09375 116.890625 20.1875 C 119.351562 22.570312 120.65625 26.078125 120.746094 29.464844 C 120.769531 31.097656 120.617188 32.695312 120.144531 34.265625 C 120.128906 34.316406 120.113281 34.367188 120.097656 34.421875 C 119.46875 36.472656 118.363281 38.21875 116.914062 39.78125 C 116.867188 39.828125 116.824219 39.878906 116.777344 39.929688 C 114.527344 42.285156 111.179688 43.433594 107.984375 43.542969 C 104.472656 43.617188 101.214844 42.363281 98.625 40 C 98.53125 39.914062 98.53125 39.914062 98.433594 39.824219 C 95.9375 37.453125 94.671875 33.875 94.570312 30.488281 C 94.523438 27.816406 95.0625 25.292969 96.351562 22.941406 C 96.386719 22.871094 96.386719 22.871094 96.425781 22.804688 C 97.953125 20.007812 100.671875 17.917969 103.710938 17.015625 C 108.050781 15.785156 112.6875 16.597656 116.167969 19.511719 Z M 101.035156 23.378906 C 100.695312 23.765625 100.421875 24.1875 100.167969 24.632812 C 100.140625 24.679688 100.117188 24.726562 100.089844 24.773438 C 99.488281 25.855469 99.113281 27.015625 98.921875 28.234375 C 98.90625 28.320312 98.894531 28.402344 98.878906 28.492188 C 98.726562 29.78125 98.746094 31.242188 99.066406 32.5 C 99.082031 32.558594 99.09375 32.613281 99.109375 32.675781 C 99.710938 35.03125 101.03125 37.082031 103.132812 38.363281 C 105.175781 39.566406 107.539062 39.925781 109.839844 39.359375 C 111.308594 38.925781 112.472656 38.226562 113.609375 37.207031 C 113.660156 37.160156 113.714844 37.113281 113.765625 37.066406 C 115.054688 35.882812 115.765625 34.164062 116.179688 32.5 C 116.191406 32.449219 116.203125 32.398438 116.21875 32.34375 C 116.589844 30.816406 116.542969 28.953125 116.179688 27.425781 C 116.164062 27.375 116.152344 27.324219 116.140625 27.269531 C 115.683594 25.40625 114.691406 23.554688 113.167969 22.351562 C 113.105469 22.300781 113.046875 22.253906 112.984375 22.199219 C 109.285156 19.253906 104.132812 19.992188 101.035156 23.378906 Z M 101.035156 23.378906 "
      style="
        stroke: none;
        fill-rule: nonzero;
        fill: rgb(0);
        fill-opacity: 1;
      "
    ></path>
    <path
      d="M 88.601562 20.167969 C 90.914062 22.390625 92.316406 25.804688 92.40625 28.988281 C 92.410156 29.308594 92.414062 29.632812 92.410156 29.953125 C 92.410156 30.054688 92.410156 30.054688 92.410156 30.160156 C 92.402344 33.496094 91.324219 36.761719 89.078125 39.265625 C 89.023438 39.332031 88.964844 39.394531 88.90625 39.464844 C 87.597656 40.964844 85.871094 42.039062 84.011719 42.71875 C 83.957031 42.742188 83.90625 42.761719 83.847656 42.78125 C 82.640625 43.214844 81.332031 43.492188 80.046875 43.53125 C 79.996094 43.53125 79.949219 43.53125 79.898438 43.535156 C 77.460938 43.597656 75.0625 43.09375 72.921875 41.910156 C 72.878906 41.886719 72.832031 41.863281 72.785156 41.835938 C 70.84375 40.773438 69.246094 39.121094 68.148438 37.207031 C 68.125 37.160156 68.097656 37.117188 68.070312 37.070312 C 66.816406 34.921875 66.277344 32.457031 66.292969 29.984375 C 66.292969 29.925781 66.292969 29.867188 66.292969 29.804688 C 66.296875 28.875 66.332031 27.972656 66.535156 27.058594 C 66.550781 26.992188 66.5625 26.925781 66.578125 26.855469 C 67.082031 24.617188 68.039062 22.441406 69.613281 20.753906 C 69.753906 20.601562 69.886719 20.445312 70.019531 20.289062 C 71.984375 18.054688 75.148438 16.71875 78.082031 16.488281 C 82.101562 16.253906 85.628906 17.457031 88.601562 20.167969 Z M 73.804688 22.351562 C 73.742188 22.40625 73.675781 22.457031 73.609375 22.511719 C 72.34375 23.605469 71.507812 25.070312 70.996094 26.644531 C 70.976562 26.695312 70.960938 26.75 70.945312 26.800781 C 70.640625 27.785156 70.535156 28.769531 70.542969 29.789062 C 70.546875 29.964844 70.542969 30.136719 70.542969 30.308594 C 70.539062 32.914062 71.515625 35.300781 73.3125 37.179688 C 74.945312 38.765625 77.171875 39.644531 79.441406 39.636719 C 81.839844 39.578125 84.035156 38.570312 85.703125 36.839844 C 86.933594 35.492188 87.632812 33.832031 87.976562 32.058594 C 87.996094 31.972656 88.011719 31.890625 88.027344 31.800781 C 88.453125 29.203125 87.976562 26.304688 86.472656 24.113281 C 86.167969 23.695312 85.835938 23.3125 85.480469 22.941406 C 85.429688 22.886719 85.378906 22.828125 85.328125 22.773438 C 83.902344 21.265625 81.785156 20.4375 79.742188 20.347656 C 77.554688 20.289062 75.496094 20.949219 73.804688 22.351562 Z M 73.804688 22.351562 "
      style="
        stroke: none;
        fill-rule: nonzero;
        fill: rgb(0);
        fill-opacity: 1;
      "
    ></path>
    <path
      d="M 45.898438 6.398438 C 47.375 6.398438 48.855469 6.398438 50.378906 6.398438 C 50.378906 17.242188 50.378906 28.089844 50.378906 39.265625 C 55.660156 39.265625 60.945312 39.265625 66.386719 39.265625 C 66.386719 40.648438 66.386719 42.03125 66.386719 43.457031 C 66.269531 43.574219 66.148438 43.539062 65.988281 43.539062 C 65.882812 43.539062 65.882812 43.539062 65.773438 43.539062 C 65.695312 43.539062 65.613281 43.539062 65.535156 43.539062 C 65.410156 43.539062 65.410156 43.539062 65.28125 43.539062 C 65 43.539062 64.71875 43.539062 64.441406 43.539062 C 64.238281 43.539062 64.039062 43.539062 63.839844 43.539062 C 63.351562 43.539062 62.859375 43.539062 62.371094 43.539062 C 61.972656 43.539062 61.578125 43.539062 61.179688 43.539062 C 61.09375 43.539062 61.09375 43.539062 61.007812 43.539062 C 60.894531 43.539062 60.78125 43.539062 60.664062 43.539062 C 59.589844 43.539062 58.511719 43.539062 57.4375 43.539062 C 56.511719 43.539062 55.589844 43.539062 54.664062 43.539062 C 53.59375 43.539062 52.519531 43.539062 51.449219 43.539062 C 51.335938 43.539062 51.21875 43.539062 51.105469 43.539062 C 51.023438 43.539062 51.023438 43.539062 50.9375 43.539062 C 50.539062 43.539062 50.140625 43.539062 49.746094 43.539062 C 49.261719 43.539062 48.777344 43.539062 48.292969 43.539062 C 48.046875 43.539062 47.800781 43.539062 47.554688 43.539062 C 47.285156 43.539062 47.019531 43.539062 46.753906 43.539062 C 46.632812 43.539062 46.632812 43.539062 46.511719 43.539062 C 46.441406 43.539062 46.371094 43.539062 46.296875 43.539062 C 46.238281 43.539062 46.175781 43.539062 46.113281 43.539062 C 45.972656 43.53125 45.972656 43.53125 45.898438 43.457031 C 45.890625 43.257812 45.890625 43.066406 45.890625 42.867188 C 45.890625 42.804688 45.890625 42.742188 45.890625 42.679688 C 45.890625 42.464844 45.890625 42.253906 45.890625 42.039062 C 45.890625 41.886719 45.890625 41.734375 45.890625 41.582031 C 45.890625 41.160156 45.890625 40.738281 45.890625 40.3125 C 45.890625 39.859375 45.890625 39.40625 45.890625 38.949219 C 45.890625 38.160156 45.890625 37.375 45.890625 36.585938 C 45.890625 35.757812 45.890625 34.929688 45.890625 34.101562 C 45.890625 34.050781 45.890625 34 45.890625 33.949219 C 45.890625 33.6875 45.890625 33.425781 45.890625 33.164062 C 45.890625 31.316406 45.890625 29.464844 45.894531 27.617188 C 45.894531 25.820312 45.894531 24.023438 45.894531 22.226562 C 45.894531 22.171875 45.894531 22.117188 45.894531 22.058594 C 45.894531 21.503906 45.894531 20.945312 45.894531 20.390625 C 45.894531 19.257812 45.894531 18.125 45.894531 16.992188 C 45.894531 16.941406 45.894531 16.890625 45.894531 16.835938 C 45.894531 13.355469 45.898438 9.875 45.898438 6.398438 Z M 45.898438 6.398438 "
      style="
        stroke: none;
        fill-rule: nonzero;
        fill: rgb(0);
        fill-opacity: 1;
      "
    ></path>
    <path
      d="M 172.945312 16.46875 C 174.351562 16.46875 175.757812 16.46875 177.203125 16.46875 C 177.203125 18.121094 177.203125 19.769531 177.203125 21.46875 C 177.253906 21.46875 177.300781 21.46875 177.351562 21.46875 C 177.378906 21.378906 177.40625 21.285156 177.433594 21.191406 C 178.039062 19.40625 179.625 18.140625 181.242188 17.292969 C 183.148438 16.382812 185.375 16.148438 187.414062 16.765625 C 187.605469 16.835938 187.800781 16.910156 188 16.984375 C 188 18.5625 188 20.140625 188 21.765625 C 187.78125 21.691406 187.5625 21.617188 187.339844 21.542969 C 185.367188 20.886719 183.375 20.734375 181.464844 21.691406 C 179.609375 22.703125 178.421875 24.390625 177.777344 26.371094 C 177.429688 27.574219 177.402344 28.804688 177.402344 30.050781 C 177.402344 30.195312 177.398438 30.34375 177.398438 30.492188 C 177.398438 30.886719 177.394531 31.28125 177.394531 31.675781 C 177.394531 32.09375 177.390625 32.507812 177.390625 32.921875 C 177.386719 33.707031 177.382812 34.488281 177.382812 35.273438 C 177.378906 36.164062 177.375 37.058594 177.371094 37.953125 C 177.363281 39.785156 177.359375 41.621094 177.351562 43.457031 C 175.898438 43.457031 174.445312 43.457031 172.945312 43.457031 C 172.945312 34.550781 172.945312 25.644531 172.945312 16.46875 Z M 172.945312 16.46875 "
      style="
        stroke: none;
        fill-rule: nonzero;
        fill: rgb(0);
        fill-opacity: 1;
      "
    ></path>
    <path
      d="M 10.867188 7.132812 C 10.96875 7.207031 11.066406 7.277344 11.164062 7.351562 C 11.066406 7.5625 10.964844 7.71875 10.800781 7.882812 C 10.757812 7.929688 10.714844 7.972656 10.671875 8.019531 C 10.601562 8.089844 10.601562 8.089844 10.53125 8.160156 C 10.480469 8.210938 10.433594 8.257812 10.382812 8.308594 C 10.28125 8.410156 10.179688 8.511719 10.078125 8.617188 C 9.921875 8.773438 9.769531 8.929688 9.613281 9.089844 C 9.515625 9.1875 9.417969 9.289062 9.316406 9.386719 C 9.273438 9.4375 9.226562 9.484375 9.179688 9.53125 C 9.113281 9.597656 9.113281 9.597656 9.046875 9.664062 C 9.007812 9.703125 8.96875 9.742188 8.929688 9.78125 C 8.8125 9.851562 8.8125 9.851562 8.664062 9.832031 C 8.46875 9.761719 8.277344 9.675781 8.082031 9.59375 C 7.160156 9.242188 6.277344 9.277344 5.359375 9.648438 C 4.410156 10.125 3.875 10.890625 3.535156 11.875 C 3.492188 12.035156 3.46875 12.1875 3.453125 12.351562 C 3.445312 12.414062 3.441406 12.472656 3.433594 12.535156 C 3.390625 13.394531 3.660156 14.179688 4.1875 14.851562 C 4.226562 14.917969 4.269531 14.980469 4.3125 15.046875 C 4.964844 15.730469 5.773438 16.050781 6.703125 16.082031 C 7.046875 16.242188 7.128906 16.574219 7.269531 16.910156 C 7.289062 16.957031 7.308594 17 7.328125 17.046875 C 7.457031 17.351562 7.582031 17.65625 7.707031 17.960938 C 7.769531 18.121094 7.835938 18.285156 7.902344 18.445312 C 7.945312 18.546875 7.988281 18.652344 8.027344 18.753906 C 8.046875 18.800781 8.070312 18.851562 8.089844 18.898438 C 8.171875 19.109375 8.226562 19.257812 8.226562 19.484375 C 6.335938 19.792969 4.488281 19.523438 2.878906 18.417969 C 2.644531 18.246094 2.421875 18.0625 2.203125 17.867188 C 2.144531 17.816406 2.085938 17.765625 2.023438 17.710938 C 0.890625 16.660156 0.0859375 15.015625 -0.0117188 13.472656 C -0.0585938 11.257812 0.402344 9.472656 1.945312 7.824219 C 4.347656 5.503906 8.144531 5.191406 10.867188 7.132812 Z M 10.867188 7.132812 "
      style="
        stroke: none;
        fill-rule: nonzero;
        fill: rgb(0);
        fill-opacity: 1;
      "
    ></path>
    <path
      d="M 18.226562 0.921875 C 19.023438 1.558594 19.542969 2.546875 19.753906 3.53125 C 19.859375 4.855469 19.734375 6.117188 18.847656 7.175781 C 18.035156 8.089844 17.027344 8.707031 15.785156 8.78125 C 14.710938 8.8125 13.871094 8.609375 12.925781 8.089844 C 12.980469 7.648438 13.375 7.351562 13.667969 7.050781 C 13.746094 6.96875 13.820312 6.890625 13.890625 6.808594 C 14.5 6.136719 14.5 6.136719 14.960938 6.054688 C 15.234375 6.058594 15.234375 6.058594 15.484375 6.085938 C 15.921875 6.117188 16.226562 5.902344 16.582031 5.679688 C 16.914062 5.339844 17.121094 4.871094 17.128906 4.398438 C 17.121094 3.910156 16.976562 3.480469 16.644531 3.117188 C 16.214844 2.75 15.746094 2.582031 15.183594 2.613281 C 14.738281 2.691406 14.335938 2.886719 14.03125 3.226562 C 13.726562 3.6875 13.648438 3.894531 13.710938 4.441406 C 13.714844 4.933594 13.589844 5.164062 13.261719 5.503906 C 13.097656 5.667969 12.925781 5.824219 12.75 5.984375 C 12.664062 6.066406 12.574219 6.152344 12.488281 6.234375 C 11.855469 6.839844 11.855469 6.839844 11.675781 6.839844 C 11.027344 5.632812 10.78125 4.398438 11.128906 3.046875 C 11.519531 1.878906 12.273438 0.988281 13.359375 0.417969 C 13.507812 0.351562 13.65625 0.285156 13.804688 0.21875 C 13.863281 0.195312 13.925781 0.171875 13.984375 0.144531 C 15.453125 -0.363281 17.003906 0.0625 18.226562 0.921875 Z M 18.226562 0.921875 "
      style="
        stroke: none;
        fill-rule: nonzero;
        fill: rgb(0);
        fill-opacity: 1;
      "
    ></path>
    <path
      d="M 12.191406 8.601562 C 12.519531 8.746094 12.644531 8.972656 12.808594 9.277344 C 12.839844 9.332031 12.867188 9.382812 12.898438 9.4375 C 13.734375 11 13.949219 12.949219 13.453125 14.65625 C 12.972656 16.125 12.085938 17.636719 10.707031 18.429688 C 10.640625 18.460938 10.570312 18.496094 10.5 18.53125 C 10.199219 17.886719 9.914062 17.234375 9.648438 16.574219 C 9.585938 16.425781 9.527344 16.277344 9.464844 16.132812 C 9.425781 16.035156 9.386719 15.941406 9.351562 15.84375 C 9.316406 15.761719 9.28125 15.675781 9.246094 15.589844 C 9.179688 15.371094 9.164062 15.28125 9.253906 15.074219 C 9.34375 14.960938 9.34375 14.960938 9.453125 14.847656 C 9.992188 14.246094 10.25 13.390625 10.226562 12.589844 C 10.175781 12.167969 10.074219 11.738281 9.902344 11.351562 C 9.832031 11.148438 9.84375 11.082031 9.914062 10.882812 C 10.007812 10.761719 10.007812 10.761719 10.132812 10.640625 C 10.175781 10.59375 10.222656 10.546875 10.269531 10.5 C 10.320312 10.453125 10.367188 10.40625 10.417969 10.355469 C 10.46875 10.304688 10.519531 10.253906 10.570312 10.203125 C 10.734375 10.042969 10.894531 9.882812 11.058594 9.722656 C 11.167969 9.617188 11.277344 9.507812 11.386719 9.398438 C 11.652344 9.132812 11.921875 8.867188 12.191406 8.601562 Z M 12.191406 8.601562 "
      style="
        stroke: none;
        fill-rule: nonzero;
        fill: rgb(0);
        fill-opacity: 1;
      "
    ></path>
  </g>
</svg>