<svg height="50px" version="1.1" viewBox="0 0 254 50" width="255px" xmlns="http://www.w3.org/2000/svg" xmlns:xlink="http://www.w3.org/1999/xlink">
  <g id="teltonika">
    <path d="M 24.074219 0 C 24.3125 0.109375 24.496094 0.222656 24.683594 0.402344 C 24.734375 0.449219 24.785156 0.496094 24.839844 0.546875 C 24.894531 0.597656 24.949219 0.652344 25.003906 0.707031 C 25.0625 0.761719 25.121094 0.816406 25.183594 0.875 C 25.828125 1.488281 26.453125 2.121094 27.078125 2.753906 C 27.578125 3.261719 27.578125 3.261719 28.105469 3.738281 C 28.679688 4.230469 29.199219 4.785156 29.726562 5.324219 C 30.507812 6.164062 30.507812 6.164062 31.382812 6.898438 C 31.664062 6.925781 31.664062 6.925781 31.863281 6.679688 C 31.957031 6.578125 32.050781 6.472656 32.140625 6.367188 C 32.761719 5.679688 33.414062 5.027344 34.074219 4.375 C 34.5625 3.890625 34.5625 3.890625 35.023438 3.375 C 35.476562 2.847656 35.980469 2.367188 36.472656 1.878906 C 36.675781 1.683594 36.875 1.484375 37.074219 1.285156 C 37.140625 1.21875 37.140625 1.21875 37.210938 1.148438 C 37.46875 0.894531 37.699219 0.632812 37.917969 0.34375 C 38.15625 0.453125 38.339844 0.570312 38.527344 0.746094 C 38.578125 0.792969 38.628906 0.84375 38.683594 0.890625 C 38.765625 0.96875 38.765625 0.96875 38.847656 1.050781 C 38.90625 1.105469 38.964844 1.160156 39.027344 1.21875 C 39.671875 1.832031 40.296875 2.464844 40.921875 3.101562 C 41.421875 3.605469 41.421875 3.605469 41.949219 4.085938 C 42.523438 4.574219 43.042969 5.128906 43.570312 5.667969 C 43.714844 5.816406 43.863281 5.960938 44.007812 6.109375 C 44.050781 6.152344 44.09375 6.199219 44.140625 6.242188 C 44.488281 6.59375 44.855469 6.917969 45.226562 7.242188 C 45.621094 6.847656 46.015625 6.457031 46.40625 6.0625 C 46.539062 5.929688 46.675781 5.796875 46.808594 5.664062 C 47 5.472656 47.195312 5.277344 47.386719 5.085938 C 47.445312 5.027344 47.503906 4.96875 47.566406 4.910156 C 47.898438 4.574219 48.214844 4.226562 48.523438 3.871094 C 48.738281 3.625 48.964844 3.398438 49.195312 3.171875 C 49.242188 3.125 49.289062 3.078125 49.335938 3.03125 C 49.535156 2.832031 49.734375 2.636719 49.9375 2.4375 C 50.683594 1.695312 50.683594 1.695312 51.386719 0.914062 C 51.542969 0.730469 51.714844 0.558594 51.886719 0.386719 C 51.972656 0.300781 51.972656 0.300781 52.0625 0.210938 C 52.105469 0.171875 52.148438 0.128906 52.191406 0.0859375 C 52.507812 0.21875 52.703125 0.40625 52.941406 0.648438 C 53.019531 0.730469 53.097656 0.808594 53.175781 0.886719 C 53.257812 0.972656 53.335938 1.054688 53.417969 1.136719 C 54.027344 1.765625 54.027344 1.765625 54.667969 2.351562 C 55.28125 2.878906 55.832031 3.46875 56.394531 4.042969 C 57.15625 4.816406 57.15625 4.816406 57.964844 5.546875 C 58.304688 5.847656 58.621094 6.179688 58.941406 6.503906 C 59.011719 6.574219 59.085938 6.644531 59.15625 6.71875 C 59.328125 6.894531 59.5 7.066406 59.671875 7.242188 C 59.335938 7.714844 58.976562 8.132812 58.5625 8.539062 C 58.507812 8.59375 58.453125 8.648438 58.398438 8.707031 C 58.222656 8.878906 58.046875 9.050781 57.875 9.222656 C 57.644531 9.453125 57.414062 9.679688 57.183594 9.910156 C 57.101562 9.992188 57.101562 9.992188 57.015625 10.074219 C 56.707031 10.382812 56.414062 10.695312 56.132812 11.027344 C 55.683594 11.535156 55.1875 12 54.707031 12.476562 C 54.164062 13.015625 53.632812 13.550781 53.140625 14.136719 C 52.972656 14.328125 52.816406 14.488281 52.621094 14.65625 C 52.21875 14.617188 52.003906 14.320312 51.742188 14.039062 C 51.453125 13.742188 51.167969 13.449219 50.851562 13.179688 C 50.269531 12.679688 49.746094 12.117188 49.207031 11.574219 C 48.472656 10.828125 48.472656 10.828125 47.695312 10.128906 C 47.464844 9.925781 47.25 9.707031 47.035156 9.488281 C 46.992188 9.445312 46.949219 9.402344 46.90625 9.359375 C 46.804688 9.257812 46.703125 9.15625 46.605469 9.050781 C 46.347656 9.164062 46.183594 9.285156 45.996094 9.492188 C 45.917969 9.574219 45.917969 9.574219 45.839844 9.660156 C 45.785156 9.71875 45.730469 9.78125 45.675781 9.84375 C 45 10.578125 44.300781 11.28125 43.59375 11.980469 C 43.089844 12.480469 43.089844 12.480469 42.613281 13.007812 C 42.140625 13.566406 41.605469 14.066406 41.085938 14.582031 C 40.453125 15.203125 40.453125 15.203125 39.855469 15.859375 C 39.371094 16.433594 38.820312 16.949219 38.285156 17.476562 C 37.632812 18.117188 37.632812 18.117188 37.015625 18.792969 C 36.53125 19.363281 35.980469 19.878906 35.449219 20.40625 C 34.960938 20.886719 34.484375 21.367188 34.039062 21.886719 C 33.605469 22.375 33.125 22.828125 32.660156 23.289062 C 32 23.941406 32 23.941406 31.359375 24.613281 C 31.3125 24.664062 31.269531 24.714844 31.21875 24.765625 C 31.09375 24.933594 31.09375 24.933594 31.125 25.257812 C 31.226562 25.410156 31.226562 25.410156 31.371094 25.542969 C 31.425781 25.601562 31.476562 25.65625 31.535156 25.710938 C 31.59375 25.769531 31.65625 25.832031 31.71875 25.890625 C 31.78125 25.957031 31.84375 26.019531 31.910156 26.085938 C 32.125 26.300781 32.339844 26.515625 32.554688 26.730469 C 32.707031 26.882812 32.863281 27.039062 33.015625 27.191406 C 33.347656 27.523438 33.675781 27.855469 34.007812 28.183594 C 34.488281 28.664062 34.96875 29.140625 35.445312 29.621094 C 36.222656 30.398438 37 31.175781 37.777344 31.949219 C 38.53125 32.707031 39.285156 33.460938 40.039062 34.214844 C 40.085938 34.261719 40.132812 34.308594 40.179688 34.355469 C 40.414062 34.589844 40.648438 34.820312 40.882812 35.054688 C 42.816406 36.992188 44.753906 38.925781 46.691406 40.863281 C 47.054688 40.695312 47.300781 40.445312 47.578125 40.164062 C 47.632812 40.109375 47.683594 40.054688 47.742188 40 C 47.917969 39.824219 48.09375 39.644531 48.269531 39.464844 C 48.394531 39.34375 48.515625 39.21875 48.640625 39.09375 C 48.964844 38.769531 49.285156 38.445312 49.609375 38.121094 C 49.9375 37.789062 50.269531 37.457031 50.597656 37.125 C 51.246094 36.476562 51.890625 35.824219 52.535156 35.171875 C 53.550781 35.625 54.40625 36.777344 55.179688 37.554688 C 55.316406 37.691406 55.453125 37.832031 55.589844 37.96875 C 55.949219 38.328125 56.308594 38.691406 56.667969 39.050781 C 57.039062 39.421875 57.40625 39.789062 57.773438 40.160156 C 58.492188 40.882812 59.210938 41.605469 59.929688 42.328125 C 59.8125 42.59375 59.675781 42.777344 59.472656 42.980469 C 59.410156 43.042969 59.351562 43.101562 59.289062 43.164062 C 59.226562 43.230469 59.160156 43.292969 59.09375 43.359375 C 59.023438 43.429688 58.957031 43.5 58.882812 43.570312 C 58.65625 43.796875 58.429688 44.023438 58.199219 44.253906 C 58.042969 44.410156 57.886719 44.570312 57.726562 44.726562 C 57.355469 45.101562 56.980469 45.472656 56.605469 45.84375 C 56.179688 46.269531 55.757812 46.695312 55.332031 47.121094 C 54.457031 47.996094 53.582031 48.867188 52.707031 49.742188 C 52.449219 49.625 52.269531 49.496094 52.070312 49.292969 C 51.984375 49.207031 51.984375 49.207031 51.898438 49.121094 C 51.835938 49.058594 51.773438 48.996094 51.710938 48.933594 C 51.644531 48.867188 51.578125 48.800781 51.511719 48.734375 C 51.296875 48.515625 51.078125 48.296875 50.863281 48.082031 C 50.714844 47.929688 50.566406 47.78125 50.414062 47.628906 C 50.019531 47.234375 49.625 46.835938 49.230469 46.441406 C 48.832031 46.035156 48.429688 45.632812 48.023438 45.226562 C 47.234375 44.433594 46.445312 43.640625 45.65625 42.84375 C 45.210938 43.21875 44.792969 43.613281 44.378906 44.03125 C 44.316406 44.09375 44.25 44.160156 44.183594 44.226562 C 43.972656 44.4375 43.761719 44.652344 43.550781 44.863281 C 43.402344 45.011719 43.253906 45.160156 43.105469 45.308594 C 42.71875 45.699219 42.332031 46.085938 41.945312 46.476562 C 41.550781 46.871094 41.15625 47.269531 40.757812 47.664062 C 39.984375 48.445312 39.210938 49.222656 38.433594 50 C 37.992188 49.628906 37.578125 49.238281 37.171875 48.832031 C 37.109375 48.765625 37.046875 48.703125 36.980469 48.640625 C 36.777344 48.433594 36.570312 48.226562 36.363281 48.019531 C 36.21875 47.875 36.078125 47.730469 35.933594 47.585938 C 35.554688 47.207031 35.179688 46.828125 34.800781 46.449219 C 34.417969 46.0625 34.03125 45.675781 33.648438 45.289062 C 32.894531 44.53125 32.140625 43.773438 31.382812 43.015625 C 31.128906 43.132812 30.953125 43.257812 30.753906 43.457031 C 30.699219 43.511719 30.644531 43.566406 30.589844 43.621094 C 30.53125 43.679688 30.46875 43.742188 30.410156 43.804688 C 30.347656 43.867188 30.285156 43.929688 30.21875 43.992188 C 30.011719 44.203125 29.804688 44.410156 29.597656 44.621094 C 29.453125 44.765625 29.308594 44.910156 29.164062 45.054688 C 28.785156 45.4375 28.40625 45.816406 28.027344 46.199219 C 27.640625 46.585938 27.253906 46.976562 26.867188 47.367188 C 26.109375 48.128906 25.351562 48.890625 24.589844 49.65625 C 24.03125 49.191406 23.519531 48.679688 23.007812 48.164062 C 22.90625 48.0625 22.808594 47.964844 22.707031 47.863281 C 22.4375 47.589844 22.164062 47.316406 21.890625 47.042969 C 21.597656 46.75 21.304688 46.453125 21.011719 46.160156 C 20.5 45.648438 19.992188 45.140625 19.484375 44.628906 C 18.746094 43.890625 18.011719 43.152344 17.277344 42.414062 C 16.082031 41.21875 14.886719 40.019531 13.695312 38.824219 C 12.535156 37.660156 11.375 36.496094 10.214844 35.332031 C 10.144531 35.261719 10.074219 35.191406 10 35.117188 C 9.640625 34.757812 9.28125 34.398438 8.921875 34.039062 C 5.949219 31.054688 2.972656 28.070312 0 25.085938 C 0.113281 24.789062 0.207031 24.585938 0.433594 24.363281 C 0.488281 24.3125 0.539062 24.257812 0.59375 24.203125 C 0.652344 24.148438 0.710938 24.089844 0.769531 24.035156 C 0.828125 23.976562 0.886719 23.914062 0.949219 23.855469 C 1.140625 23.667969 1.328125 23.480469 1.519531 23.292969 C 1.710938 23.105469 1.898438 22.917969 2.085938 22.730469 C 2.203125 22.617188 2.324219 22.5 2.441406 22.382812 C 2.769531 22.058594 3.078125 21.722656 3.382812 21.371094 C 3.59375 21.128906 3.820312 20.898438 4.050781 20.671875 C 4.097656 20.625 4.148438 20.578125 4.195312 20.53125 C 4.394531 20.332031 4.59375 20.136719 4.792969 19.9375 C 5.445312 19.296875 5.445312 19.296875 6.0625 18.621094 C 6.546875 18.046875 7.097656 17.535156 7.632812 17.007812 C 8.285156 16.367188 8.285156 16.367188 8.898438 15.691406 C 9.386719 15.117188 9.9375 14.601562 10.46875 14.074219 C 10.953125 13.59375 11.433594 13.117188 11.875 12.59375 C 12.3125 12.105469 12.792969 11.65625 13.257812 11.195312 C 13.890625 10.570312 13.890625 10.570312 14.488281 9.914062 C 14.960938 9.359375 15.492188 8.859375 16.007812 8.347656 C 16.488281 7.875 16.960938 7.402344 17.394531 6.886719 C 17.746094 6.488281 18.136719 6.125 18.515625 5.75 C 18.808594 5.457031 19.097656 5.167969 19.367188 4.847656 C 19.863281 4.269531 20.417969 3.75 20.957031 3.214844 C 21.449219 2.726562 21.933594 2.246094 22.382812 1.71875 C 22.683594 1.375 23.015625 1.054688 23.339844 0.734375 C 23.410156 0.660156 23.480469 0.589844 23.554688 0.519531 C 23.726562 0.34375 23.902344 0.171875 24.074219 0 Z M 18.152344 9.011719 C 18.09375 9.070312 18.035156 9.132812 17.972656 9.195312 C 17.90625 9.261719 17.839844 9.328125 17.769531 9.398438 C 17.703125 9.46875 17.632812 9.539062 17.5625 9.613281 C 17.496094 9.679688 17.425781 9.75 17.359375 9.820312 C 17.058594 10.125 16.761719 10.429688 16.484375 10.757812 C 15.992188 11.332031 15.4375 11.855469 14.898438 12.390625 C 14.246094 13.027344 14.246094 13.027344 13.632812 13.703125 C 13.128906 14.292969 12.558594 14.824219 12.011719 15.371094 C 11.265625 16.109375 11.265625 16.109375 10.566406 16.886719 C 10.113281 17.394531 9.617188 17.859375 9.136719 18.339844 C 8.484375 18.980469 8.484375 18.980469 7.867188 19.65625 C 7.382812 20.226562 6.832031 20.742188 6.296875 21.269531 C 5.8125 21.75 5.332031 22.230469 4.886719 22.75 C 4.511719 23.175781 4.101562 23.566406 3.703125 23.964844 C 3.609375 24.058594 3.519531 24.148438 3.425781 24.242188 C 3.199219 24.464844 2.976562 24.691406 2.75 24.914062 C 3.121094 25.355469 3.503906 25.765625 3.910156 26.171875 C 3.972656 26.234375 4.035156 26.296875 4.101562 26.363281 C 4.3125 26.574219 4.519531 26.785156 4.730469 26.996094 C 4.882812 27.144531 5.03125 27.296875 5.183594 27.449219 C 5.507812 27.773438 5.832031 28.097656 6.15625 28.421875 C 6.625 28.890625 7.09375 29.363281 7.5625 29.832031 C 8.324219 30.59375 9.085938 31.355469 9.84375 32.117188 C 10.585938 32.859375 11.324219 33.597656 12.0625 34.339844 C 12.109375 34.386719 12.152344 34.429688 12.199219 34.476562 C 12.429688 34.707031 12.65625 34.9375 12.886719 35.164062 C 14.78125 37.0625 16.675781 38.964844 18.574219 40.863281 C 18.667969 40.78125 18.761719 40.699219 18.859375 40.617188 C 18.910156 40.574219 18.964844 40.527344 19.019531 40.480469 C 19.246094 40.28125 19.460938 40.066406 19.675781 39.851562 C 19.722656 39.804688 19.769531 39.757812 19.816406 39.710938 C 19.96875 39.558594 20.117188 39.410156 20.269531 39.257812 C 20.375 39.152344 20.476562 39.046875 20.582031 38.941406 C 20.859375 38.664062 21.132812 38.386719 21.410156 38.113281 C 21.6875 37.828125 21.972656 37.546875 22.253906 37.261719 C 22.804688 36.710938 23.351562 36.15625 23.902344 35.601562 C 23.769531 35.285156 23.582031 35.085938 23.339844 34.84375 C 23.300781 34.804688 23.257812 34.761719 23.21875 34.722656 C 23.082031 34.585938 22.949219 34.453125 22.8125 34.316406 C 22.714844 34.21875 22.621094 34.125 22.523438 34.027344 C 22.261719 33.765625 21.996094 33.5 21.734375 33.238281 C 21.460938 32.964844 21.1875 32.691406 20.914062 32.414062 C 20.394531 31.894531 19.875 31.375 19.355469 30.855469 C 18.761719 30.265625 18.171875 29.671875 17.578125 29.082031 C 16.363281 27.863281 15.148438 26.648438 13.929688 25.429688 C 14.054688 25.171875 14.171875 24.996094 14.378906 24.792969 C 14.460938 24.710938 14.460938 24.710938 14.546875 24.628906 C 14.601562 24.574219 14.660156 24.519531 14.71875 24.460938 C 15.046875 24.140625 15.367188 23.824219 15.664062 23.476562 C 16.164062 22.898438 16.71875 22.371094 17.261719 21.832031 C 17.746094 21.351562 18.226562 20.875 18.667969 20.355469 C 19.105469 19.863281 19.585938 19.414062 20.050781 18.953125 C 20.683594 18.332031 20.683594 18.332031 21.277344 17.675781 C 21.542969 17.363281 21.824219 17.078125 22.113281 16.792969 C 22.164062 16.742188 22.210938 16.695312 22.261719 16.644531 C 22.460938 16.449219 22.664062 16.25 22.863281 16.050781 C 23.011719 15.90625 23.160156 15.757812 23.308594 15.609375 C 23.351562 15.566406 23.398438 15.523438 23.445312 15.480469 C 23.753906 15.171875 24 14.84375 24.246094 14.484375 C 23.867188 14.101562 23.488281 13.71875 23.109375 13.335938 C 22.980469 13.207031 22.851562 13.078125 22.722656 12.949219 C 22.539062 12.761719 22.351562 12.574219 22.164062 12.386719 C 22.109375 12.328125 22.050781 12.273438 21.992188 12.214844 C 21.664062 11.882812 21.324219 11.570312 20.972656 11.265625 C 20.722656 11.046875 20.492188 10.808594 20.261719 10.570312 C 20.164062 10.472656 20.0625 10.371094 19.964844 10.269531 C 19.8125 10.117188 19.660156 9.960938 19.507812 9.804688 C 19.359375 9.652344 19.210938 9.5 19.0625 9.347656 C 19.015625 9.300781 18.972656 9.253906 18.925781 9.207031 C 18.8125 9.09375 18.691406 8.984375 18.574219 8.878906 C 18.3125 8.851562 18.3125 8.851562 18.152344 9.011719 Z M 32.160156 9.222656 C 32.113281 9.273438 32.070312 9.324219 32.027344 9.375 C 31.488281 9.984375 30.917969 10.558594 30.34375 11.132812 C 29.664062 11.796875 29.664062 11.796875 29.023438 12.496094 C 28.550781 13.050781 28.015625 13.550781 27.5 14.066406 C 26.867188 14.6875 26.867188 14.6875 26.269531 15.34375 C 25.796875 15.898438 25.265625 16.398438 24.75 16.910156 C 24.113281 17.53125 24.113281 17.53125 23.515625 18.191406 C 23.046875 18.742188 22.511719 19.242188 21.996094 19.753906 C 21.363281 20.378906 21.363281 20.378906 20.765625 21.035156 C 20.292969 21.589844 19.761719 22.089844 19.246094 22.597656 C 18.761719 23.078125 18.285156 23.554688 17.84375 24.074219 C 17.628906 24.320312 17.394531 24.554688 17.160156 24.785156 C 17.089844 24.855469 17.089844 24.855469 17.019531 24.925781 C 16.90625 25.035156 16.792969 25.148438 16.679688 25.257812 C 16.796875 25.511719 16.921875 25.691406 17.117188 25.890625 C 17.171875 25.945312 17.226562 26 17.28125 26.054688 C 17.34375 26.117188 17.402344 26.175781 17.464844 26.238281 C 17.527344 26.300781 17.59375 26.367188 17.65625 26.429688 C 17.871094 26.644531 18.085938 26.859375 18.300781 27.074219 C 18.453125 27.230469 18.609375 27.382812 18.761719 27.535156 C 19.09375 27.867188 19.421875 28.199219 19.753906 28.53125 C 20.230469 29.007812 20.710938 29.488281 21.1875 29.964844 C 21.964844 30.742188 22.738281 31.519531 23.515625 32.296875 C 24.269531 33.050781 25.023438 33.804688 25.777344 34.558594 C 25.824219 34.605469 25.871094 34.652344 25.917969 34.699219 C 26.148438 34.933594 26.382812 35.167969 26.617188 35.398438 C 28.550781 37.335938 30.484375 39.273438 32.417969 41.207031 C 32.78125 41.039062 33.027344 40.789062 33.304688 40.507812 C 33.359375 40.453125 33.410156 40.402344 33.46875 40.34375 C 33.644531 40.167969 33.820312 39.988281 33.996094 39.8125 C 34.121094 39.6875 34.242188 39.5625 34.367188 39.441406 C 34.691406 39.117188 35.011719 38.789062 35.335938 38.464844 C 35.664062 38.132812 35.996094 37.800781 36.324219 37.46875 C 36.972656 36.820312 37.617188 36.167969 38.261719 35.515625 C 38.128906 35.199219 37.9375 35 37.695312 34.757812 C 37.652344 34.714844 37.613281 34.675781 37.570312 34.632812 C 37.4375 34.5 37.300781 34.363281 37.164062 34.230469 C 37.066406 34.132812 36.96875 34.035156 36.871094 33.9375 C 36.660156 33.726562 36.449219 33.519531 36.238281 33.308594 C 35.90625 32.980469 35.574219 32.648438 35.242188 32.320312 C 34.300781 31.378906 33.355469 30.441406 32.410156 29.5 C 31.890625 28.984375 31.367188 28.464844 30.847656 27.945312 C 30.519531 27.613281 30.1875 27.285156 29.855469 26.960938 C 29.652344 26.753906 29.445312 26.550781 29.242188 26.347656 C 29.148438 26.25 29.050781 26.15625 28.957031 26.0625 C 28.824219 25.933594 28.695312 25.804688 28.566406 25.675781 C 28.496094 25.601562 28.421875 25.53125 28.347656 25.453125 C 28.203125 25.257812 28.203125 25.257812 28.214844 25.070312 C 28.3125 24.867188 28.4375 24.746094 28.601562 24.589844 C 28.824219 24.378906 29.03125 24.160156 29.230469 23.925781 C 29.738281 23.339844 30.296875 22.808594 30.847656 22.265625 C 31.5 21.625 31.5 21.625 32.117188 20.949219 C 32.601562 20.375 33.152344 19.863281 33.683594 19.332031 C 34.335938 18.695312 34.335938 18.695312 34.953125 18.015625 C 35.214844 17.707031 35.496094 17.425781 35.785156 17.140625 C 35.832031 17.089844 35.878906 17.042969 35.929688 16.996094 C 36.128906 16.796875 36.328125 16.601562 36.527344 16.402344 C 36.675781 16.257812 36.824219 16.109375 36.972656 15.964844 C 37.015625 15.921875 37.058594 15.878906 37.105469 15.832031 C 37.445312 15.496094 37.726562 15.128906 38.003906 14.742188 C 37.652344 14.382812 37.296875 14.027344 36.941406 13.667969 C 36.820312 13.546875 36.699219 13.425781 36.578125 13.304688 C 36.40625 13.128906 36.230469 12.953125 36.058594 12.78125 C 35.976562 12.699219 35.976562 12.699219 35.898438 12.617188 C 35.578125 12.296875 35.246094 11.992188 34.902344 11.695312 C 34.660156 11.484375 34.4375 11.257812 34.214844 11.027344 C 34.121094 10.933594 34.027344 10.835938 33.933594 10.742188 C 33.789062 10.59375 33.644531 10.445312 33.5 10.296875 C 33.359375 10.152344 33.21875 10.007812 33.078125 9.863281 C 33.035156 9.820312 32.992188 9.773438 32.945312 9.730469 C 32.703125 9.480469 32.492188 9.328125 32.160156 9.222656 Z M 32.160156 9.222656 " style="
        stroke: none;
        fill-rule: nonzero;
        fill: rgb(0%, 0%, 0%);
        fill-opacity: 1;
      "></path>
    <path d="M 166.003906 16.605469 C 167.402344 17.921875 168.023438 19.6875 168.097656 21.578125 C 168.199219 26.050781 166.03125 30.425781 163.035156 33.632812 C 162.425781 34.269531 161.761719 34.824219 161.050781 35.34375 C 161 35.382812 160.949219 35.417969 160.898438 35.453125 C 159.199219 36.679688 157.339844 37.5 155.3125 38 C 155.242188 38.019531 155.175781 38.035156 155.105469 38.050781 C 153.890625 38.332031 152.679688 38.394531 151.4375 38.390625 C 151.363281 38.390625 151.292969 38.386719 151.21875 38.386719 C 148.796875 38.378906 146.496094 37.960938 144.625 36.292969 C 144.566406 36.238281 144.503906 36.183594 144.441406 36.128906 C 143.191406 34.953125 142.542969 33.164062 142.476562 31.464844 C 142.472656 31.390625 142.46875 31.316406 142.46875 31.242188 C 142.390625 27.941406 143.667969 24.390625 145.574219 21.722656 C 145.632812 21.636719 145.695312 21.554688 145.757812 21.464844 C 146.703125 20.164062 147.753906 19.015625 149.011719 18.015625 C 149.09375 17.949219 149.179688 17.878906 149.265625 17.808594 C 153.566406 14.34375 161.457031 12.703125 166.003906 16.605469 Z M 153.226562 21.984375 C 153.179688 22.027344 153.132812 22.070312 153.085938 22.117188 C 152.707031 22.476562 152.421875 22.851562 152.15625 23.304688 C 152.117188 23.371094 152.074219 23.4375 152.035156 23.507812 C 150.824219 25.574219 149.707031 28.386719 150.1875 30.8125 C 150.417969 31.496094 150.761719 31.964844 151.394531 32.3125 C 152.644531 32.882812 154.035156 32.726562 155.316406 32.324219 C 157.292969 31.5625 158.492188 29.800781 159.320312 27.933594 C 159.632812 27.203125 159.882812 26.453125 160.105469 25.691406 C 160.132812 25.589844 160.132812 25.589844 160.164062 25.488281 C 160.488281 24.328125 160.785156 22.75 160.210938 21.632812 C 160.175781 21.578125 160.140625 21.523438 160.105469 21.464844 C 160.070312 21.410156 160.035156 21.355469 159.996094 21.296875 C 159.542969 20.683594 158.824219 20.402344 158.09375 20.28125 C 156.230469 20.082031 154.535156 20.632812 153.226562 21.984375 Z M 153.226562 21.984375 " style="
        stroke: none;
        fill-rule: nonzero;
        fill: rgb(0%, 0%, 0%);
        fill-opacity: 1;
      "></path>
    <path d="M 58.984375 15.085938 C 66.277344 15.085938 73.570312 15.085938 81.082031 15.085938 C 80.445312 17.105469 79.792969 19.117188 79.105469 21.121094 C 75.53125 21.164062 75.53125 21.164062 71.882812 21.207031 C 70.367188 25.816406 70.367188 25.816406 68.863281 30.425781 C 68.375 31.9375 67.878906 33.449219 67.386719 34.957031 C 67.363281 35.019531 67.34375 35.082031 67.324219 35.148438 C 67.1875 35.5625 67.050781 35.980469 66.914062 36.398438 C 66.878906 36.503906 66.84375 36.613281 66.808594 36.722656 C 66.773438 36.824219 66.742188 36.921875 66.707031 37.023438 C 66.679688 37.109375 66.652344 37.195312 66.625 37.285156 C 66.570312 37.441406 66.519531 37.601562 66.464844 37.757812 C 64.027344 37.757812 61.585938 37.757812 59.070312 37.757812 C 59.183594 37.261719 59.289062 36.8125 59.445312 36.335938 C 59.464844 36.277344 59.484375 36.21875 59.507812 36.15625 C 59.570312 35.957031 59.636719 35.761719 59.703125 35.566406 C 59.746094 35.425781 59.792969 35.285156 59.839844 35.144531 C 59.9375 34.847656 60.035156 34.550781 60.132812 34.253906 C 60.289062 33.789062 60.441406 33.324219 60.59375 32.855469 C 60.644531 32.699219 60.699219 32.546875 60.75 32.390625 C 60.773438 32.3125 60.800781 32.234375 60.824219 32.15625 C 60.902344 31.921875 60.980469 31.691406 61.054688 31.460938 C 61.441406 30.285156 61.828125 29.109375 62.210938 27.929688 C 62.261719 27.769531 62.316406 27.609375 62.367188 27.449219 C 62.445312 27.207031 62.523438 26.964844 62.601562 26.722656 C 63.199219 24.882812 63.800781 23.046875 64.402344 21.207031 C 61.960938 21.179688 59.523438 21.148438 57.007812 21.121094 C 57.257812 20.324219 57.257812 20.324219 57.511719 19.507812 C 57.5625 19.347656 57.613281 19.1875 57.667969 19.019531 C 58.082031 17.699219 58.535156 16.398438 58.984375 15.085938 Z M 58.984375 15.085938 " style="
        stroke: none;
        fill-rule: nonzero;
        fill: rgb(0%, 0%, 0%);
        fill-opacity: 1;
      "></path>
    <path d="M 84.167969 15.074219 C 84.242188 15.074219 84.3125 15.074219 84.390625 15.074219 C 84.464844 15.074219 84.542969 15.074219 84.621094 15.074219 C 84.882812 15.074219 85.140625 15.074219 85.402344 15.078125 C 85.585938 15.078125 85.773438 15.078125 85.957031 15.078125 C 86.464844 15.078125 86.96875 15.078125 87.476562 15.078125 C 88.003906 15.078125 88.53125 15.078125 89.058594 15.078125 C 90.058594 15.078125 91.058594 15.078125 92.054688 15.078125 C 93.195312 15.082031 94.332031 15.082031 95.46875 15.082031 C 97.8125 15.082031 100.152344 15.085938 102.496094 15.085938 C 102.453125 15.234375 102.414062 15.382812 102.375 15.535156 C 102.339844 15.660156 102.339844 15.660156 102.304688 15.785156 C 102.203125 16.15625 102.082031 16.523438 101.957031 16.890625 C 101.917969 17.003906 101.917969 17.003906 101.878906 17.121094 C 101.796875 17.363281 101.714844 17.609375 101.632812 17.851562 C 101.554688 18.09375 101.472656 18.335938 101.390625 18.578125 C 101.339844 18.730469 101.289062 18.878906 101.238281 19.03125 C 101.09375 19.46875 100.957031 19.90625 100.828125 20.351562 C 100.773438 20.515625 100.773438 20.515625 100.6875 20.601562 C 100.539062 20.613281 100.390625 20.617188 100.242188 20.617188 C 100.148438 20.617188 100.050781 20.617188 99.953125 20.621094 C 99.792969 20.621094 99.792969 20.621094 99.628906 20.621094 C 99.460938 20.621094 99.460938 20.621094 99.289062 20.625 C 98.984375 20.625 98.675781 20.628906 98.371094 20.628906 C 98.050781 20.632812 97.730469 20.632812 97.410156 20.636719 C 96.804688 20.640625 96.195312 20.644531 95.589844 20.648438 C 94.898438 20.652344 94.207031 20.65625 93.515625 20.660156 C 92.09375 20.671875 90.675781 20.679688 89.253906 20.691406 C 88.941406 21.628906 88.628906 22.566406 88.308594 23.535156 C 91.484375 23.535156 94.664062 23.535156 97.9375 23.535156 C 97.648438 24.601562 97.648438 24.601562 97.523438 24.976562 C 97.484375 25.101562 97.484375 25.101562 97.441406 25.230469 C 97.414062 25.320312 97.386719 25.40625 97.355469 25.496094 C 97.324219 25.589844 97.296875 25.679688 97.265625 25.777344 C 97.203125 25.96875 97.140625 26.160156 97.078125 26.355469 C 96.980469 26.652344 96.882812 26.949219 96.789062 27.242188 C 96.726562 27.433594 96.664062 27.621094 96.605469 27.808594 C 96.574219 27.898438 96.546875 27.984375 96.515625 28.078125 C 96.476562 28.199219 96.476562 28.199219 96.433594 28.324219 C 96.410156 28.394531 96.386719 28.46875 96.363281 28.542969 C 96.304688 28.707031 96.304688 28.707031 96.21875 28.792969 C 96.09375 28.800781 95.964844 28.804688 95.839844 28.808594 C 95.71875 28.808594 95.71875 28.808594 95.59375 28.808594 C 95.503906 28.808594 95.414062 28.808594 95.324219 28.8125 C 95.183594 28.8125 95.183594 28.8125 95.039062 28.8125 C 94.726562 28.816406 94.414062 28.816406 94.101562 28.820312 C 93.886719 28.820312 93.671875 28.824219 93.453125 28.824219 C 92.945312 28.832031 92.433594 28.835938 91.921875 28.835938 C 91.285156 28.84375 90.644531 28.847656 90.007812 28.851562 C 88.867188 28.863281 87.726562 28.871094 86.585938 28.878906 C 86.554688 28.976562 86.523438 29.070312 86.492188 29.167969 C 86.378906 29.523438 86.265625 29.878906 86.152344 30.234375 C 86.101562 30.386719 86.050781 30.539062 86.003906 30.691406 C 85.929688 30.914062 85.859375 31.132812 85.789062 31.355469 C 85.757812 31.457031 85.757812 31.457031 85.722656 31.5625 C 85.566406 32.050781 85.566406 32.050781 85.46875 32.242188 C 89.386719 32.242188 93.300781 32.242188 97.335938 32.242188 C 97.042969 33.308594 97.042969 33.308594 96.914062 33.707031 C 96.871094 33.839844 96.871094 33.839844 96.828125 33.976562 C 96.796875 34.070312 96.765625 34.164062 96.734375 34.261719 C 96.703125 34.359375 96.671875 34.457031 96.636719 34.558594 C 96.570312 34.761719 96.503906 34.964844 96.4375 35.171875 C 96.335938 35.488281 96.234375 35.800781 96.128906 36.117188 C 96.066406 36.316406 96 36.515625 95.933594 36.714844 C 95.886719 36.859375 95.886719 36.859375 95.839844 37.003906 C 95.796875 37.132812 95.796875 37.132812 95.753906 37.265625 C 95.730469 37.34375 95.707031 37.417969 95.679688 37.5 C 95.617188 37.671875 95.617188 37.671875 95.53125 37.757812 C 95.28125 37.765625 95.035156 37.769531 94.789062 37.769531 C 94.667969 37.769531 94.667969 37.769531 94.550781 37.769531 C 94.285156 37.769531 94.015625 37.769531 93.75 37.769531 C 93.5625 37.769531 93.371094 37.769531 93.183594 37.769531 C 92.664062 37.769531 92.148438 37.769531 91.632812 37.765625 C 91.09375 37.765625 90.550781 37.765625 90.011719 37.765625 C 89.105469 37.765625 88.199219 37.765625 87.292969 37.765625 C 86.359375 37.765625 85.425781 37.765625 84.492188 37.761719 C 84.40625 37.761719 84.40625 37.761719 84.320312 37.761719 C 84.03125 37.761719 83.742188 37.761719 83.453125 37.761719 C 81.058594 37.761719 78.664062 37.761719 76.269531 37.757812 C 76.296875 37.636719 76.320312 37.515625 76.347656 37.394531 C 76.363281 37.324219 76.378906 37.257812 76.390625 37.1875 C 76.46875 36.863281 76.574219 36.550781 76.679688 36.234375 C 76.703125 36.164062 76.722656 36.09375 76.75 36.019531 C 76.824219 35.785156 76.902344 35.554688 76.980469 35.320312 C 77.035156 35.15625 77.089844 34.988281 77.144531 34.824219 C 77.289062 34.386719 77.433594 33.945312 77.578125 33.507812 C 77.804688 32.820312 78.03125 32.132812 78.261719 31.445312 C 78.316406 31.273438 78.375 31.101562 78.429688 30.929688 C 78.964844 29.308594 79.492188 27.683594 80.019531 26.058594 C 80.238281 25.382812 80.460938 24.707031 80.683594 24.027344 C 80.734375 23.867188 80.734375 23.867188 80.789062 23.703125 C 80.894531 23.382812 81 23.058594 81.105469 22.738281 C 81.257812 22.265625 81.414062 21.796875 81.566406 21.328125 C 81.585938 21.269531 81.605469 21.210938 81.625 21.148438 C 81.894531 20.328125 82.164062 19.503906 82.429688 18.679688 C 82.484375 18.511719 82.542969 18.34375 82.597656 18.171875 C 82.613281 18.117188 82.632812 18.0625 82.648438 18.007812 C 82.667969 17.953125 82.683594 17.898438 82.703125 17.84375 C 82.808594 17.523438 82.910156 17.207031 83.011719 16.890625 C 83.105469 16.601562 83.199219 16.3125 83.292969 16.023438 C 83.320312 15.9375 83.347656 15.851562 83.378906 15.765625 C 83.402344 15.6875 83.429688 15.609375 83.453125 15.53125 C 83.476562 15.460938 83.5 15.394531 83.519531 15.324219 C 83.640625 14.996094 83.847656 15.074219 84.167969 15.074219 Z M 84.167969 15.074219 " style="
        stroke: none;
        fill-rule: nonzero;
        fill: rgb(0%, 0%, 0%);
        fill-opacity: 1;
      "></path>
    <path d="M 106.449219 15.085938 C 108.890625 15.085938 111.328125 15.085938 113.84375 15.085938 C 113.683594 15.671875 113.523438 16.25 113.332031 16.828125 C 113.308594 16.902344 113.285156 16.972656 113.257812 17.050781 C 113.179688 17.289062 113.101562 17.53125 113.019531 17.769531 C 112.964844 17.941406 112.90625 18.113281 112.851562 18.285156 C 112.703125 18.734375 112.550781 19.1875 112.402344 19.640625 C 112.140625 20.4375 111.875 21.238281 111.613281 22.035156 C 111.570312 22.167969 111.570312 22.167969 111.523438 22.300781 C 110.9375 24.085938 110.355469 25.871094 109.777344 27.65625 C 109.6875 27.929688 109.601562 28.203125 109.511719 28.480469 C 109.453125 28.65625 109.398438 28.835938 109.339844 29.011719 C 109.1875 29.476562 109.1875 29.476562 109.117188 29.699219 C 109.066406 29.851562 109.015625 30.003906 108.96875 30.160156 C 108.894531 30.390625 108.816406 30.621094 108.742188 30.855469 C 108.71875 30.921875 108.699219 30.992188 108.675781 31.0625 C 108.523438 31.53125 108.523438 31.53125 108.425781 31.722656 C 111.890625 31.722656 115.351562 31.722656 118.917969 31.722656 C 118.855469 32.148438 118.796875 32.476562 118.664062 32.875 C 118.632812 32.980469 118.597656 33.085938 118.5625 33.191406 C 118.523438 33.304688 118.488281 33.417969 118.449219 33.53125 C 118.410156 33.648438 118.375 33.765625 118.335938 33.878906 C 118.253906 34.125 118.175781 34.367188 118.09375 34.609375 C 117.992188 34.921875 117.890625 35.234375 117.785156 35.546875 C 117.6875 35.84375 117.589844 36.140625 117.492188 36.441406 C 117.472656 36.496094 117.457031 36.554688 117.4375 36.613281 C 117.382812 36.773438 117.332031 36.933594 117.277344 37.09375 C 117.246094 37.183594 117.21875 37.277344 117.1875 37.371094 C 117.113281 37.585938 117.113281 37.585938 117.027344 37.757812 C 111.09375 37.757812 105.164062 37.757812 99.054688 37.757812 C 99.203125 37.210938 99.347656 36.679688 99.527344 36.144531 C 99.546875 36.085938 99.566406 36.023438 99.585938 35.964844 C 99.648438 35.765625 99.714844 35.570312 99.777344 35.375 C 99.824219 35.238281 99.871094 35.097656 99.917969 34.957031 C 100.015625 34.660156 100.113281 34.367188 100.207031 34.070312 C 100.363281 33.605469 100.515625 33.140625 100.667969 32.675781 C 100.707031 32.558594 100.707031 32.558594 100.746094 32.441406 C 100.796875 32.285156 100.847656 32.128906 100.898438 31.972656 C 100.976562 31.742188 101.050781 31.511719 101.128906 31.277344 C 101.507812 30.121094 101.886719 28.964844 102.261719 27.808594 C 102.371094 27.480469 102.476562 27.152344 102.582031 26.824219 C 102.621094 26.703125 102.621094 26.703125 102.664062 26.578125 C 103.101562 25.226562 103.546875 23.875 103.988281 22.523438 C 104.082031 22.234375 104.179688 21.941406 104.273438 21.652344 C 104.292969 21.59375 104.3125 21.535156 104.332031 21.476562 C 104.597656 20.664062 104.863281 19.851562 105.128906 19.039062 C 105.183594 18.871094 105.238281 18.703125 105.292969 18.535156 C 105.460938 18.007812 105.632812 17.484375 105.804688 16.960938 C 105.863281 16.773438 105.925781 16.589844 105.984375 16.402344 C 106.011719 16.320312 106.039062 16.234375 106.066406 16.148438 C 106.09375 16.070312 106.117188 15.992188 106.144531 15.914062 C 106.167969 15.847656 106.1875 15.78125 106.210938 15.710938 C 106.285156 15.5 106.367188 15.292969 106.449219 15.085938 Z M 106.449219 15.085938 " style="
        stroke: none;
        fill-rule: nonzero;
        fill: rgb(0%, 0%, 0%);
        fill-opacity: 1;
      "></path>
    <path d="M 123.386719 15.085938 C 130.679688 15.085938 137.972656 15.085938 145.488281 15.085938 C 145.195312 16.152344 145.195312 16.152344 145.050781 16.601562 C 145.019531 16.699219 144.984375 16.800781 144.953125 16.902344 C 144.917969 17.007812 144.882812 17.109375 144.847656 17.21875 C 144.8125 17.328125 144.777344 17.4375 144.742188 17.550781 C 144.667969 17.777344 144.589844 18.007812 144.515625 18.238281 C 144.417969 18.53125 144.324219 18.828125 144.226562 19.121094 C 144.152344 19.347656 144.078125 19.574219 144.003906 19.800781 C 143.953125 19.964844 143.898438 20.125 143.847656 20.285156 C 143.816406 20.382812 143.785156 20.480469 143.75 20.582031 C 143.707031 20.710938 143.707031 20.710938 143.664062 20.839844 C 143.59375 21.035156 143.59375 21.035156 143.507812 21.121094 C 143.285156 21.128906 143.0625 21.132812 142.835938 21.128906 C 142.765625 21.128906 142.695312 21.128906 142.621094 21.128906 C 142.390625 21.128906 142.15625 21.128906 141.921875 21.128906 C 141.757812 21.128906 141.597656 21.128906 141.433594 21.128906 C 141.007812 21.128906 140.582031 21.128906 140.15625 21.125 C 139.71875 21.125 139.285156 21.125 138.851562 21.125 C 137.996094 21.125 137.140625 21.121094 136.285156 21.121094 C 136.273438 21.171875 136.261719 21.222656 136.246094 21.273438 C 136.042969 22.054688 135.789062 22.8125 135.539062 23.578125 C 135.488281 23.722656 135.441406 23.871094 135.390625 24.019531 C 135.289062 24.328125 135.1875 24.640625 135.085938 24.949219 C 134.925781 25.433594 134.765625 25.921875 134.605469 26.40625 C 134.578125 26.484375 134.554688 26.566406 134.527344 26.648438 C 134.472656 26.808594 134.421875 26.96875 134.367188 27.128906 C 134.289062 27.367188 134.210938 27.605469 134.132812 27.84375 C 133.769531 28.941406 133.410156 30.039062 133.054688 31.136719 C 133.011719 31.273438 132.96875 31.410156 132.925781 31.542969 C 132.859375 31.75 132.792969 31.953125 132.726562 32.160156 C 132.425781 33.085938 132.121094 34.015625 131.820312 34.941406 C 131.730469 35.214844 131.644531 35.488281 131.554688 35.761719 C 131.457031 36.0625 131.359375 36.363281 131.261719 36.664062 C 131.230469 36.753906 131.199219 36.84375 131.171875 36.9375 C 131.144531 37.019531 131.117188 37.105469 131.089844 37.191406 C 131.0625 37.261719 131.039062 37.335938 131.015625 37.410156 C 130.957031 37.585938 130.957031 37.585938 130.871094 37.757812 C 128.429688 37.757812 125.988281 37.757812 123.476562 37.757812 C 123.648438 37.121094 123.828125 36.492188 124.035156 35.867188 C 124.066406 35.777344 124.09375 35.6875 124.125 35.59375 C 124.222656 35.300781 124.316406 35.003906 124.414062 34.710938 C 124.484375 34.5 124.554688 34.289062 124.621094 34.078125 C 124.765625 33.632812 124.914062 33.1875 125.058594 32.746094 C 125.378906 31.761719 125.703125 30.78125 126.023438 29.796875 C 126.128906 29.472656 126.234375 29.144531 126.34375 28.820312 C 126.683594 27.78125 127.023438 26.738281 127.363281 25.699219 C 127.503906 25.269531 127.644531 24.839844 127.78125 24.410156 C 127.898438 24.0625 128.011719 23.710938 128.125 23.359375 C 128.210938 23.09375 128.300781 22.824219 128.386719 22.558594 C 128.417969 22.464844 128.449219 22.367188 128.480469 22.269531 C 128.523438 22.136719 128.523438 22.136719 128.570312 22 C 128.59375 21.921875 128.621094 21.847656 128.644531 21.769531 C 128.71875 21.550781 128.804688 21.335938 128.890625 21.121094 C 126.453125 21.121094 124.011719 21.121094 121.496094 21.121094 C 121.691406 20.246094 121.691406 20.246094 121.789062 19.941406 C 121.8125 19.871094 121.835938 19.804688 121.859375 19.730469 C 121.882812 19.660156 121.90625 19.585938 121.929688 19.511719 C 121.957031 19.433594 121.980469 19.359375 122.007812 19.277344 C 122.085938 19.03125 122.167969 18.785156 122.25 18.539062 C 122.300781 18.378906 122.355469 18.214844 122.40625 18.054688 C 122.730469 17.0625 123.058594 16.074219 123.386719 15.085938 Z M 123.386719 15.085938 " style="
        stroke: none;
        fill-rule: nonzero;
        fill: rgb(0%, 0%, 0%);
        fill-opacity: 1;
      "></path>
    <path d="M 174.292969 15.085938 C 176.617188 15.085938 178.945312 15.085938 181.34375 15.085938 C 182.109375 17.601562 182.109375 17.601562 182.488281 18.84375 C 182.542969 19.03125 182.601562 19.21875 182.65625 19.40625 C 182.6875 19.5 182.6875 19.5 182.714844 19.597656 C 182.851562 20.050781 182.992188 20.5 183.128906 20.953125 C 183.304688 21.535156 183.484375 22.121094 183.660156 22.703125 C 183.753906 23.015625 183.847656 23.328125 183.945312 23.640625 C 184.316406 24.859375 184.679688 26.058594 184.820312 27.332031 C 184.859375 27.660156 184.941406 27.960938 185.039062 28.277344 C 185.0625 28.164062 185.085938 28.054688 185.109375 27.941406 C 185.507812 26.089844 186.128906 24.3125 186.726562 22.523438 C 186.898438 22.007812 187.066406 21.496094 187.238281 20.980469 C 187.371094 20.582031 187.503906 20.179688 187.636719 19.777344 C 188.15625 18.21875 188.660156 16.652344 189.167969 15.085938 C 191.492188 15.085938 193.820312 15.085938 196.21875 15.085938 C 195.929688 16.152344 195.929688 16.152344 195.792969 16.566406 C 195.746094 16.707031 195.746094 16.707031 195.699219 16.847656 C 195.667969 16.949219 195.632812 17.046875 195.601562 17.148438 C 195.546875 17.3125 195.492188 17.476562 195.4375 17.640625 C 195.382812 17.816406 195.324219 17.988281 195.265625 18.164062 C 195.144531 18.53125 195.027344 18.898438 194.90625 19.265625 C 194.757812 19.710938 194.613281 20.160156 194.464844 20.605469 C 194.105469 21.703125 193.746094 22.804688 193.386719 23.902344 C 193.277344 24.230469 193.171875 24.558594 193.0625 24.886719 C 192.628906 26.214844 192.195312 27.546875 191.761719 28.875 C 191.570312 29.453125 191.382812 30.03125 191.195312 30.613281 C 191.03125 31.105469 190.871094 31.601562 190.710938 32.09375 C 190.503906 32.730469 190.292969 33.367188 190.085938 34.003906 C 189.984375 34.3125 189.882812 34.621094 189.785156 34.929688 C 189.6875 35.21875 189.59375 35.507812 189.5 35.800781 C 189.449219 35.957031 189.398438 36.113281 189.347656 36.269531 C 189.300781 36.414062 189.300781 36.414062 189.25 36.558594 C 189.210938 36.683594 189.210938 36.683594 189.171875 36.808594 C 189.0625 37.128906 188.941406 37.441406 188.824219 37.757812 C 186.496094 37.757812 184.167969 37.757812 181.773438 37.757812 C 181.421875 36.640625 181.070312 35.523438 180.71875 34.402344 C 180.683594 34.289062 180.648438 34.175781 180.613281 34.0625 C 180.597656 34.007812 180.578125 33.949219 180.5625 33.890625 C 180.429688 33.464844 180.296875 33.039062 180.164062 32.613281 C 179.980469 32.03125 179.800781 31.449219 179.617188 30.863281 C 179.519531 30.546875 179.421875 30.230469 179.324219 29.914062 C 178.777344 28.175781 178.367188 26.453125 178.074219 24.65625 C 178.0625 24.703125 178.050781 24.753906 178.039062 24.804688 C 177.707031 26.246094 177.277344 27.644531 176.808594 29.046875 C 176.65625 29.507812 176.503906 29.96875 176.351562 30.429688 C 176.292969 30.605469 176.234375 30.777344 176.179688 30.953125 C 175.773438 32.179688 175.382812 33.410156 174.992188 34.640625 C 174.9375 34.8125 174.886719 34.980469 174.832031 35.152344 C 174.78125 35.300781 174.734375 35.453125 174.6875 35.605469 C 174.457031 36.328125 174.199219 37.039062 173.949219 37.757812 C 171.621094 37.757812 169.292969 37.757812 166.898438 37.757812 C 167.679688 35.273438 168.480469 32.796875 169.296875 30.320312 C 169.558594 29.523438 169.824219 28.726562 170.085938 27.929688 C 170.113281 27.84375 170.144531 27.753906 170.171875 27.664062 C 170.632812 26.273438 171.085938 24.878906 171.539062 23.484375 C 172.007812 22.042969 172.476562 20.605469 172.949219 19.164062 C 173.035156 18.902344 173.121094 18.636719 173.207031 18.375 C 173.292969 18.113281 173.378906 17.855469 173.464844 17.597656 C 173.503906 17.476562 173.542969 17.355469 173.582031 17.234375 C 173.636719 17.066406 173.691406 16.898438 173.746094 16.734375 C 173.777344 16.640625 173.808594 16.546875 173.839844 16.449219 C 173.988281 15.996094 174.140625 15.539062 174.292969 15.085938 Z M 174.292969 15.085938 " style="
        stroke: none;
        fill-rule: nonzero;
        fill: rgb(0%, 0%, 0%);
        fill-opacity: 1;
      "></path>
    <path d="M 200.773438 15.085938 C 203.273438 15.085938 205.769531 15.085938 208.34375 15.085938 C 208.050781 16.152344 208.050781 16.152344 207.917969 16.566406 C 207.886719 16.660156 207.855469 16.753906 207.824219 16.847656 C 207.773438 16.996094 207.773438 16.996094 207.722656 17.148438 C 207.671875 17.3125 207.617188 17.476562 207.5625 17.640625 C 207.503906 17.816406 207.449219 17.988281 207.390625 18.164062 C 207.269531 18.53125 207.148438 18.898438 207.027344 19.265625 C 206.882812 19.714844 206.734375 20.160156 206.589844 20.605469 C 206.230469 21.695312 205.875 22.785156 205.519531 23.875 C 205.339844 24.417969 205.164062 24.960938 204.984375 25.503906 C 204.914062 25.722656 204.84375 25.941406 204.773438 26.15625 C 204.574219 26.757812 204.378906 27.359375 204.183594 27.960938 C 204.128906 28.125 204.074219 28.289062 204.019531 28.453125 C 203.84375 28.996094 203.664062 29.542969 203.488281 30.085938 C 203.148438 31.117188 202.8125 32.148438 202.476562 33.179688 C 202.335938 33.609375 202.195312 34.039062 202.054688 34.46875 C 201.941406 34.816406 201.828125 35.167969 201.714844 35.519531 C 201.625 35.785156 201.539062 36.054688 201.453125 36.320312 C 201.40625 36.464844 201.40625 36.464844 201.355469 36.609375 C 201.328125 36.699219 201.300781 36.789062 201.269531 36.878906 C 201.246094 36.957031 201.21875 37.03125 201.195312 37.113281 C 201.117188 37.328125 201.03125 37.542969 200.945312 37.757812 C 198.449219 37.757812 195.953125 37.757812 193.378906 37.757812 C 193.546875 37.144531 193.71875 36.542969 193.921875 35.941406 C 193.960938 35.824219 193.960938 35.824219 194.003906 35.699219 C 194.0625 35.527344 194.117188 35.355469 194.175781 35.183594 C 194.332031 34.714844 194.488281 34.25 194.644531 33.78125 C 194.675781 33.6875 194.707031 33.59375 194.742188 33.496094 C 195.023438 32.644531 195.300781 31.792969 195.578125 30.9375 C 196.109375 29.292969 196.648438 27.652344 197.183594 26.011719 C 197.355469 25.492188 197.527344 24.96875 197.699219 24.445312 C 197.71875 24.382812 197.742188 24.320312 197.761719 24.253906 C 198.054688 23.367188 198.34375 22.484375 198.628906 21.597656 C 198.664062 21.492188 198.699219 21.390625 198.734375 21.28125 C 198.890625 20.800781 199.046875 20.320312 199.203125 19.839844 C 199.71875 18.253906 200.25 16.671875 200.773438 15.085938 Z M 200.773438 15.085938 " style="
        stroke: none;
        fill-rule: nonzero;
        fill: rgb(0%, 0%, 0%);
        fill-opacity: 1;
      "></path>
    <path d="M 212.898438 15.085938 C 215.3125 15.085938 217.722656 15.085938 220.207031 15.085938 C 219.917969 16.152344 219.917969 16.152344 219.757812 16.636719 C 219.703125 16.796875 219.703125 16.796875 219.648438 16.964844 C 219.632812 17.019531 219.613281 17.074219 219.59375 17.132812 C 219.535156 17.3125 219.476562 17.488281 219.417969 17.667969 C 219.25 18.175781 219.082031 18.679688 218.914062 19.1875 C 218.8125 19.5 218.707031 19.8125 218.605469 20.125 C 218.566406 20.242188 218.527344 20.359375 218.488281 20.476562 C 218.285156 21.089844 218.097656 21.691406 217.972656 22.328125 C 218.105469 22.222656 218.105469 22.222656 218.242188 22.117188 C 218.929688 21.585938 219.621094 21.066406 220.335938 20.566406 C 221.007812 20.097656 221.664062 19.609375 222.320312 19.121094 C 223.191406 18.472656 224.058594 17.832031 224.9375 17.199219 C 225.492188 16.796875 226.046875 16.394531 226.597656 15.984375 C 226.699219 15.910156 226.699219 15.910156 226.804688 15.832031 C 226.867188 15.785156 226.933594 15.738281 227 15.6875 C 227.054688 15.648438 227.113281 15.605469 227.171875 15.5625 C 227.351562 15.433594 227.351562 15.433594 227.515625 15.253906 C 227.890625 15.011719 228.207031 15.039062 228.644531 15.046875 C 228.730469 15.046875 228.820312 15.046875 228.910156 15.046875 C 229.195312 15.046875 229.484375 15.050781 229.773438 15.050781 C 229.972656 15.054688 230.171875 15.054688 230.371094 15.054688 C 230.898438 15.054688 231.421875 15.058594 231.949219 15.0625 C 232.484375 15.066406 233.023438 15.066406 233.558594 15.070312 C 234.613281 15.074219 235.664062 15.078125 236.71875 15.085938 C 236.472656 15.332031 236.242188 15.566406 235.960938 15.765625 C 235.871094 15.832031 235.871094 15.832031 235.777344 15.898438 C 235.679688 15.964844 235.679688 15.964844 235.582031 16.035156 C 235.445312 16.132812 235.304688 16.234375 235.164062 16.332031 C 235.09375 16.382812 235.023438 16.433594 234.949219 16.488281 C 234.621094 16.722656 234.292969 16.960938 233.964844 17.199219 C 233.835938 17.292969 233.707031 17.386719 233.578125 17.476562 C 233.320312 17.664062 233.0625 17.855469 232.800781 18.042969 C 232.113281 18.539062 231.425781 19.035156 230.730469 19.523438 C 230.289062 19.835938 229.847656 20.15625 229.410156 20.472656 C 228.910156 20.835938 228.40625 21.195312 227.902344 21.550781 C 227.375 21.921875 226.851562 22.300781 226.328125 22.679688 C 226.261719 22.726562 226.199219 22.773438 226.132812 22.820312 C 225.785156 23.074219 225.785156 23.074219 225.445312 23.332031 C 225.28125 23.449219 225.28125 23.449219 225.109375 23.449219 C 225.144531 23.539062 225.183594 23.628906 225.222656 23.722656 C 225.75 25.03125 226.242188 26.351562 226.734375 27.671875 C 226.988281 28.355469 227.246094 29.039062 227.5 29.726562 C 227.527344 29.796875 227.550781 29.863281 227.578125 29.933594 C 228.117188 31.378906 228.664062 32.824219 229.210938 34.265625 C 229.242188 34.347656 229.242188 34.347656 229.273438 34.433594 C 229.519531 35.082031 229.765625 35.730469 230.011719 36.378906 C 230.214844 36.179688 230.398438 35.988281 230.554688 35.753906 C 230.589844 35.699219 230.625 35.648438 230.664062 35.59375 C 230.703125 35.535156 230.738281 35.480469 230.777344 35.421875 C 231.125 34.90625 231.480469 34.402344 231.84375 33.902344 C 232.242188 33.351562 232.632812 32.796875 233.019531 32.242188 C 233.445312 31.628906 233.878906 31.019531 234.320312 30.414062 C 234.664062 29.933594 235.003906 29.449219 235.339844 28.964844 C 235.769531 28.351562 236.203125 27.742188 236.640625 27.136719 C 236.984375 26.65625 237.324219 26.175781 237.664062 25.691406 C 238.089844 25.074219 238.523438 24.464844 238.960938 23.859375 C 239.308594 23.382812 239.648438 22.898438 239.984375 22.414062 C 240.410156 21.800781 240.84375 21.191406 241.285156 20.585938 C 241.628906 20.105469 241.96875 19.625 242.304688 19.136719 C 242.738281 18.519531 243.171875 17.90625 243.613281 17.292969 C 243.992188 16.773438 244.363281 16.246094 244.734375 15.714844 C 244.773438 15.660156 244.8125 15.601562 244.855469 15.542969 C 244.890625 15.492188 244.925781 15.441406 244.960938 15.386719 C 245.058594 15.257812 245.058594 15.257812 245.230469 15.085938 C 245.46875 15.070312 245.699219 15.066406 245.9375 15.066406 C 246.007812 15.066406 246.082031 15.066406 246.15625 15.066406 C 246.398438 15.066406 246.640625 15.066406 246.882812 15.070312 C 247.050781 15.070312 247.21875 15.070312 247.386719 15.070312 C 247.828125 15.070312 248.269531 15.074219 248.710938 15.074219 C 249.160156 15.074219 249.609375 15.078125 250.058594 15.078125 C 250.941406 15.078125 251.828125 15.082031 252.710938 15.085938 C 252.875 17.960938 253.039062 20.839844 253.203125 23.714844 C 253.222656 24.054688 253.242188 24.390625 253.261719 24.730469 C 253.265625 24.832031 253.265625 24.832031 253.273438 24.9375 C 253.335938 26.03125 253.398438 27.125 253.460938 28.21875 C 253.523438 29.34375 253.589844 30.464844 253.652344 31.585938 C 253.691406 32.28125 253.730469 32.972656 253.773438 33.667969 C 253.800781 34.199219 253.832031 34.730469 253.863281 35.257812 C 253.875 35.476562 253.886719 35.695312 253.898438 35.914062 C 253.917969 36.210938 253.933594 36.507812 253.949219 36.804688 C 253.957031 36.890625 253.960938 36.980469 253.964844 37.070312 C 253.972656 37.148438 253.976562 37.226562 253.980469 37.308594 C 253.984375 37.378906 253.988281 37.445312 253.992188 37.515625 C 253.996094 37.597656 254 37.679688 254 37.757812 C 251.589844 37.757812 249.175781 37.757812 246.691406 37.757812 C 246.691406 36.792969 246.691406 35.824219 246.691406 34.828125 C 243.910156 34.828125 241.128906 34.828125 238.265625 34.828125 C 238.207031 34.96875 238.152344 35.113281 238.09375 35.257812 C 237.980469 35.441406 237.859375 35.625 237.742188 35.804688 C 237.707031 35.855469 237.671875 35.90625 237.636719 35.957031 C 237.53125 36.117188 237.421875 36.277344 237.3125 36.4375 C 237.203125 36.601562 237.097656 36.761719 236.988281 36.921875 C 236.890625 37.070312 236.792969 37.214844 236.695312 37.359375 C 236.546875 37.574219 236.546875 37.574219 236.460938 37.757812 C 234.445312 37.757812 232.429688 37.757812 230.355469 37.757812 C 230.210938 37.472656 230.070312 37.191406 229.925781 36.898438 C 229.863281 37.035156 229.800781 37.175781 229.734375 37.324219 C 229.566406 37.558594 229.4375 37.722656 229.152344 37.808594 C 228.617188 37.886719 228.074219 37.855469 227.53125 37.84375 C 227.355469 37.839844 227.179688 37.839844 227.003906 37.839844 C 226.539062 37.835938 226.078125 37.828125 225.613281 37.816406 C 225.140625 37.808594 224.667969 37.804688 224.195312 37.800781 C 223.265625 37.792969 222.339844 37.777344 221.410156 37.757812 C 221.046875 36.949219 221.046875 36.949219 220.898438 36.539062 C 220.871094 36.460938 220.84375 36.382812 220.8125 36.300781 C 220.78125 36.21875 220.753906 36.136719 220.722656 36.050781 C 220.691406 35.960938 220.65625 35.871094 220.625 35.78125 C 220.519531 35.492188 220.414062 35.203125 220.308594 34.914062 C 220.238281 34.714844 220.164062 34.515625 220.09375 34.3125 C 219.945312 33.90625 219.796875 33.5 219.648438 33.09375 C 219.359375 32.292969 219.066406 31.488281 218.773438 30.683594 C 218.660156 30.382812 218.550781 30.082031 218.441406 29.78125 C 218.34375 29.511719 218.242188 29.238281 218.144531 28.964844 C 217.8125 28.964844 217.621094 29.105469 217.347656 29.273438 C 217.292969 29.304688 217.242188 29.335938 217.1875 29.371094 C 217.078125 29.4375 216.96875 29.503906 216.855469 29.574219 C 216.6875 29.675781 216.519531 29.777344 216.351562 29.878906 C 216.246094 29.945312 216.136719 30.011719 216.03125 30.078125 C 215.953125 30.121094 215.953125 30.121094 215.878906 30.167969 C 215.324219 30.511719 215.085938 30.816406 214.890625 31.4375 C 214.871094 31.503906 214.847656 31.570312 214.824219 31.636719 C 214.753906 31.855469 214.683594 32.074219 214.613281 32.292969 C 214.566406 32.445312 214.515625 32.597656 214.46875 32.75 C 214.335938 33.148438 214.207031 33.546875 214.078125 33.945312 C 213.921875 34.433594 213.765625 34.917969 213.609375 35.402344 C 213.484375 35.78125 213.363281 36.160156 213.242188 36.539062 C 213.21875 36.605469 213.195312 36.675781 213.171875 36.746094 C 213.132812 36.875 213.089844 37.007812 213.046875 37.136719 C 212.910156 37.566406 212.910156 37.566406 212.8125 37.757812 C 210.402344 37.757812 207.988281 37.757812 205.503906 37.757812 C 205.660156 37.1875 205.816406 36.625 206 36.066406 C 206.023438 35.996094 206.046875 35.929688 206.070312 35.859375 C 206.144531 35.636719 206.21875 35.410156 206.289062 35.1875 C 206.34375 35.027344 206.394531 34.867188 206.449219 34.710938 C 206.585938 34.289062 206.726562 33.867188 206.867188 33.445312 C 207.085938 32.78125 207.300781 32.121094 207.519531 31.460938 C 207.574219 31.292969 207.628906 31.128906 207.683594 30.964844 C 208.164062 29.507812 208.636719 28.054688 209.109375 26.597656 C 209.132812 26.523438 209.15625 26.449219 209.183594 26.371094 C 209.207031 26.296875 209.230469 26.226562 209.253906 26.148438 C 209.472656 25.472656 209.695312 24.792969 209.917969 24.113281 C 209.953125 24.007812 209.988281 23.902344 210.023438 23.789062 C 210.128906 23.46875 210.234375 23.144531 210.339844 22.824219 C 210.496094 22.351562 210.648438 21.882812 210.804688 21.414062 C 210.824219 21.355469 210.839844 21.296875 210.859375 21.234375 C 211.128906 20.414062 211.398438 19.59375 211.667969 18.769531 C 211.722656 18.601562 211.777344 18.429688 211.832031 18.261719 C 212.003906 17.734375 212.175781 17.207031 212.347656 16.679688 C 212.40625 16.492188 212.46875 16.304688 212.53125 16.117188 C 212.558594 16.035156 212.585938 15.949219 212.613281 15.859375 C 212.640625 15.78125 212.664062 15.707031 212.691406 15.625 C 212.710938 15.558594 212.734375 15.492188 212.757812 15.421875 C 212.8125 15.257812 212.8125 15.257812 212.898438 15.085938 Z M 246.519531 22.414062 C 246.378906 22.609375 246.246094 22.804688 246.109375 23 C 246.070312 23.0625 246.027344 23.125 245.984375 23.1875 C 245.894531 23.320312 245.800781 23.457031 245.710938 23.589844 C 245.53125 23.851562 245.351562 24.117188 245.171875 24.378906 C 244.71875 25.046875 244.265625 25.710938 243.8125 26.378906 C 243.394531 26.988281 242.980469 27.601562 242.5625 28.210938 C 242.519531 28.277344 242.472656 28.347656 242.425781 28.414062 C 242.132812 28.839844 241.839844 29.261719 241.539062 29.679688 C 241.429688 29.824219 241.429688 29.824219 241.445312 30 C 243.207031 30 244.964844 30 246.777344 30 C 246.789062 27.46875 246.761719 24.941406 246.605469 22.414062 C 246.578125 22.414062 246.546875 22.414062 246.519531 22.414062 Z M 246.519531 22.414062 " style="
        stroke: none;
        fill-rule: nonzero;
        fill: rgb(0%, 0%, 0%);
        fill-opacity: 1;
      "></path>
  </g>
</svg>